<?xml version="1.0" encoding="utf-8"?>
<!DOCTYPE svg PUBLIC "-//W3C//DTD SVG 1.1//EN" "http://www.w3.org/Graphics/SVG/1.1/DTD/svg11.dtd">
<svg version="1.1" id="Layer_1" xmlns="http://www.w3.org/2000/svg" xmlns:xlink="http://www.w3.org/1999/xlink" x="0px" y="0px"
	 width="147.125px" height="223.994px" viewBox="54.438 0.003 147.125 223.994"
	 enable-background="new 54.438 0.003 147.125 223.994" xml:space="preserve">
<path fill="#F4F3F1" d="M57.596,32.234c-0.662,0-1.244-0.188-1.771-0.532c-0.531-0.347-0.905-0.956-1.135-1.82
	c-0.109-0.244-0.183-0.481-0.211-0.726c-0.027-0.237-0.042-0.489-0.042-0.708c0-0.731,0.202-1.408,0.617-2.063
	c0.418-0.628,0.924-1.23,1.533-1.777c0.606-0.555,1.252-1.057,1.922-1.526c0.668-0.459,1.252-0.898,1.761-1.302
	c0.513-0.434,0.972-0.914,1.369-1.439c0.396-0.52,0.749-1.072,1.064-1.647c0.312-0.583,0.611-1.161,0.895-1.744
	c0.285-0.58,0.586-1.142,0.891-1.695c0.287-0.475,0.713-0.971,1.28-1.521c0.569-0.55,1.135-1.12,1.705-1.682
	c0.574-0.569,1.064-1.115,1.495-1.653c0.426-0.535,0.634-1.057,0.634-1.535c0-0.069-0.007-0.12-0.037-0.157
	c-0.027-0.045-0.063-0.103-0.091-0.151l-0.08-0.182c-0.999-0.173-2.021-0.262-3.072-0.262c-0.71,0-1.403,0.042-2.087,0.129
	c-0.684,0.084-1.307,0.228-1.877,0.438L61.726,8.73c-0.999,0-1.849-0.203-2.556-0.595c-0.717-0.396-1.453-0.873-2.216-1.451
	c-0.147-0.359-0.279-0.75-0.386-1.18C56.452,5.068,56.4,4.655,56.4,4.24c0-0.577,0.123-1.044,0.381-1.391
	c0.563-0.842,1.232-1.437,2.003-1.782c0.763-0.357,1.609-0.524,2.516-0.524c0.794,0,1.594,0.094,2.404,0.266
	c0.814,0.165,1.602,0.373,2.369,0.603c0.141,0,0.423,0.038,0.833,0.125c0.414,0.1,0.87,0.14,1.35,0.14
	c0.627,0.112,1.287,0.249,1.95,0.385c0.67,0.155,1.301,0.324,1.841,0.547c0.538,0.223,0.746,0.473,1.105,0.767
	C73.506,3.664,73.5,4.011,73.5,4.419v0.137c0,0.714-0.146,1.348-0.371,1.885c-0.227,0.543-0.477,1.108-0.81,1.714
	c-0.033,0.03,0.026,0.113,0.026,0.221l0.417,0.873c0,0.114-0.04,0.218-0.148,0.301c-0.626,1.01-1.424,2.095-2.423,3.272
	c-0.992,1.16-1.961,2.35-2.915,3.565c-0.945,1.208-1.762,2.466-2.444,3.747c-0.685,1.265-1.021,2.538-1.021,3.82
	c0,0.782,0.094,1.357,0.276,1.719c0.185,0.381,0.449,0.614,0.788,0.762c0.345,0.145,0.748,0.229,1.216,0.239
	c0.469,0.015,1,0.057,1.598,0.112c0.145,0,0.367,0.016,0.683,0.036c0.31,0.031,0.622,0.095,0.938,0.182
	c0.309,0.086,0.581,0.199,0.806,0.346c0.229,0.137,0.345,0.317,0.345,0.524c0,0.231-0.216,0.478-0.635,0.785
	c-0.148,0.086-0.287,0.129-0.431,0.129c-0.316,0-0.648-0.107-1.008-0.309c-0.351-0.204-0.712-0.304-1.086-0.304
	c-0.763,0-1.482,0.169-2.149,0.52c-0.665,0.361-1.34,0.777-2.023,1.264c-0.052,0.037-0.108,0.067-0.151,0.088
	c-0.042,0.036-0.091,0.057-0.149,0.095c-0.678,0.459-1.499,0.925-2.471,1.382C59.394,31.995,58.467,32.234,57.596,32.234z
	 M71.906,21.624c-0.324,1.288-0.267,2.623,0.194,4.011c0.08,0.237,0.159,0.386,0.23,0.449c0.065,0.043,0.144,0.079,0.237,0.093
	c0.085,0.021,0.181,0.05,0.295,0.072c0.114,0.029,0.253,0.128,0.425,0.303c0.339,0.357,0.847,0.619,1.511,0.798
	c0.669,0.201,1.39,0.274,2.152,0.266c0.769-0.009,1.529-0.143,2.287-0.395c0.748-0.239,1.381-0.626,1.892-1.137
	c0.684-0.705,1.13-1.273,1.341-1.712c0.213-0.431,0.374-0.835,0.494-1.222c0.108-0.356,0.271-0.769,0.483-1.215
	c0.216-0.434,0.661-1.002,1.344-1.695c0.316-0.378,0.683-0.588,1.107-0.647c0.432-0.063,0.835,0.025,1.239,0.226
	c0.395,0.23,0.74,0.553,1.021,0.991c0.285,0.426,0.439,0.958,0.468,1.572c0.028,0.717,0.048,1.314,0.048,1.781
	c0,0.463,0.045,0.873,0.146,1.24c0.1,0.36,0.287,0.726,0.574,1.115c0.288,0.375,0.727,0.828,1.324,1.388
	c0.733,0.748,1.517,1.102,2.322,1.042c0.808-0.062,1.453-0.711,1.942-1.955c0.132-0.439,0.16-0.828,0.053-1.162
	c-0.095-0.335-0.23-0.658-0.402-0.971c-0.196-0.234-0.446-0.401-0.741-0.525c-0.303-0.115-0.605-0.222-0.916-0.307
	c-0.315-0.086-0.625-0.202-0.92-0.346c-0.294-0.145-0.568-0.382-0.806-0.692c-0.245-0.322-0.44-0.775-0.597-1.365
	c-0.159-0.569-0.238-1.335-0.238-2.296c0-0.525-0.07-1.446-0.208-2.785c-0.145-1.333-0.704-2.951-1.41-4.883
	c-0.114-0.274-0.3-0.584-0.3-0.887c0-0.304,0-0.595,0-0.887c0-0.291,0.085-0.567,0-0.828c-0.088-0.266-0.219-0.508-0.534-0.734
	c-0.223-0.235-0.528-0.331-0.969-0.263c-0.438,0.052-0.862,0.193-1.308,0.416c-0.438,0.21-0.833,0.468-1.207,0.778
	c-0.361,0.3-0.586,0.58-0.672,0.846c-0.145,0.24-0.207,0.456-0.192,0.652c0.015,0.2,0.073,0.401,0.173,0.593
	c0.102,0.194,0.217,0.382,0.346,0.577c0.121,0.221,0.23,0.427,0.318,0.657c0.279,2.1-0.426,4.05-2.131,5.883
	c-0.855,0.92-1.69,1.531-2.512,1.826c-0.826,0.298-1.473,0.097-1.922-0.566c-0.143-0.207-0.099-0.538,0.13-0.979
	c0.224-0.453,0.478-0.935,0.764-1.438c0.287-0.519,0.54-0.997,0.769-1.457c0.226-0.465,0.275-0.82,0.125-1.047
	c-0.138-0.319-0.244-0.536-0.318-0.679c-0.065-0.122-0.26-0.198-0.575-0.198c-0.677-0.17-1.274-0.141-1.785,0.076
	c-0.511,0.217-0.983,0.541-1.409,0.965c-0.424,0.453-0.821,0.943-1.188,1.505c-0.379,0.573-0.745,1.121-1.113,1.629
	C72.69,19.182,72.229,20.355,71.906,21.624z M97.915,26.773c0.431-0.073,0.778-0.2,1.065-0.373c0.229-0.144,0.582-0.303,1.065-0.47
	c0.482-0.183,0.991-0.308,1.517-0.402c0.52-0.078,0.725-0.114,1.191-0.078c0.469,0.021,0.746,0.16,0.746,0.381v-0.345
	c1,0.762,1.615,1.338,2.471,1.717c0.85,0.399,1.877,0.757,2.796,1.068c0.592,0.144,1.275,0.331,1.901,0.541
	c0.625,0.219,1.292,0.409,1.932,0.576c0.64,0.156,1.3,0.235,1.938,0.235c0.641,0,1.263-0.145,1.86-0.431
	c0.286-0.151,0.57-0.329,0.838-0.548c0.267-0.217,0.492-0.544,0.664-0.984c0.455-0.831,0.597-1.683,0.425-2.498
	c-0.167-0.827-0.494-1.617-0.977-2.345c-0.482-0.748-1.066-1.433-1.743-2.065c-0.689-0.646-1.328-1.192-1.926-1.662
	c-0.591-0.461-1.266-0.878-2.017-1.237c-0.756-0.367-1.573-0.454-2.452-0.287c-0.311,0-0.647,0.044-1.001,0.164
	c-0.359,0.086-0.683,0.237-0.979,0.425c-0.302,0.195-0.553,0.418-0.747,0.669c-0.201,0.266-0.302,0.552-0.302,0.872
	c0.086,0.468,0.273,0.842,0.575,1.116c0.301,0.266,0.641,0.509,1.021,0.689c0.389,0.202,0.763,0.354,1.135,0.49
	c0.363,0.123,0.665,0.28,0.894,0.445c0.31,0.152,0.52,0.246,0.641,0.31c0.107,0.065,0.094,0.164-0.049,0.314
	c-0.086,0.276-0.31,0.434-0.678,0.45c-0.373,0.014-0.771-0.043-1.194-0.181c-0.431-0.115-0.836-0.287-1.23-0.469
	c-0.404-0.193-0.676-0.33-0.813-0.424c-0.599-0.928-1.215-1.833-1.829-2.74c-0.632-0.899-1.328-1.722-2.094-2.482
	c-0.228-0.229-0.286-0.55-0.171-0.971c0.109-0.433,0.28-0.863,0.489-1.332c0.215-0.46,0.447-0.899,0.704-1.318
	c0.254-0.421,0.426-0.749,0.512-0.984c0.282-0.46,0.718-1,1.302-1.582c0.582-0.604,1.182-1.225,1.808-1.857
	c0.626-0.643,1.207-1.291,1.746-1.957c0.54-0.669,0.929-1.311,1.151-1.919c0.145-0.378,0.254-0.798,0.346-1.24
	c0.079-0.448,0.107-0.885,0.079-1.319c-0.022-0.444-0.136-0.866-0.338-1.288c-0.2-0.417-0.526-0.772-0.979-1.069
	c-0.311-0.232-0.699-0.359-1.151-0.373c-0.453-0.009-0.915,0.039-1.387,0.154c-0.469,0.119-0.907,0.29-1.324,0.508
	c-0.404,0.216-0.733,0.441-0.951,0.669c-0.604,0.605-0.934,1.271-1.006,1.982c-0.073,0.709-0.059,1.434,0.043,2.167
	c0.1,0.753,0.179,1.482,0.236,2.223c0.058,0.75-0.106,1.462-0.469,2.162c-0.372,0.695-0.683,1.387-0.941,2.056
	c-0.253,0.69-0.495,1.361-0.698,2.033c-0.214,0.671-0.447,1.331-0.706,1.975c-0.257,0.655-0.567,1.281-0.939,1.891
	c-0.593,0.325-1.008,0.72-1.232,1.182c-0.229,0.466-0.382,0.948-0.474,1.459c-0.08,0.504-0.152,1.005-0.208,1.525
	c-0.058,0.501-0.231,0.961-0.514,1.365c-0.912,1.044-1.208,2.059-0.896,3.045C97.046,26.723,97.489,26.841,97.915,26.773z
	 M120.98,26.083c0.066,0.043,0.145,0.079,0.226,0.093c0.086,0.021,0.191,0.05,0.302,0.072c0.114,0.029,0.259,0.128,0.431,0.303
	c0.338,0.357,0.836,0.619,1.512,0.798c0.662,0.201,1.387,0.274,2.151,0.266c0.763-0.009,1.524-0.143,2.278-0.395
	c0.751-0.239,1.384-0.626,1.899-1.137c0.678-0.705,1.124-1.273,1.341-1.712c0.215-0.431,0.373-0.835,0.488-1.222
	c0.116-0.356,0.274-0.769,0.489-1.215c0.216-0.434,0.662-1.002,1.339-1.695c0.315-0.378,0.688-0.588,1.108-0.647
	c0.429-0.063,0.846,0.025,1.236,0.226c0.392,0.23,0.737,0.553,1.022,0.991c0.286,0.426,0.445,0.958,0.473,1.572
	c0.029,0.717,0.043,1.314,0.043,1.781c0,0.463,0.046,0.873,0.146,1.24c0.101,0.36,0.289,0.726,0.576,1.115
	c0.285,0.375,0.721,0.828,1.322,1.388c0.735,0.748,1.512,1.102,2.328,1.042c0.806-0.062,1.445-0.711,1.932-1.955
	c0.145-0.439,0.159-0.828,0.07-1.162c-0.101-0.335-0.242-0.658-0.414-0.971c-0.19-0.234-0.447-0.401-0.748-0.525
	c-0.291-0.115-0.604-0.222-0.909-0.307c-0.315-0.086-0.618-0.202-0.921-0.346c-0.3-0.145-0.563-0.382-0.807-0.692
	c-0.242-0.322-0.444-0.775-0.603-1.365c-0.157-0.569-0.231-1.335-0.231-2.296c0-0.525-0.071-1.446-0.215-2.785
	c-0.144-1.333-1.017-2.951-1.723-4.883c-0.114-0.274-0.624-0.584-0.624-0.887c0-0.304,0-0.595,0-0.887
	c0-0.291,0.409-0.567,0.323-0.828c-0.086-0.266-0.06-0.508-0.374-0.734c-0.219-0.235-0.447-0.331-0.885-0.263
	c-0.442,0.052-0.82,0.193-1.266,0.416c-0.443,0.21-0.819,0.468-1.182,0.778c-0.373,0.3-0.586,0.58-0.674,0.846
	c-0.143,0.24-0.195,0.456-0.191,0.652c0.025,0.2,0.084,0.401,0.186,0.593c0.099,0.194,0.218,0.382,0.337,0.577
	c0.13,0.221,0.242,0.427,0.329,0.657c0.277,2.1-0.431,4.05-2.141,5.883c-0.85,0.92-1.688,1.531-2.513,1.826
	c-0.819,0.298-1.461,0.097-1.908-0.566c-0.15-0.207-0.105-0.538,0.13-0.979c0.218-0.453,0.476-0.935,0.763-1.438
	c0.287-0.519,0.54-0.997,0.764-1.457c0.229-0.465,0.266-0.82,0.123-1.047c-0.137-0.319-0.239-0.536-0.312-0.679
	c-0.071-0.122-0.266-0.198-0.575-0.198c-0.683-0.17-1.28-0.141-1.792,0.076c-0.51,0.217-0.979,0.541-1.408,0.965
	c-0.424,0.453-0.821,0.943-1.188,1.505c-0.374,0.573-0.742,1.121-1.108,1.629c-0.597,1.079-1.058,2.253-1.389,3.521
	c-0.324,1.288-0.267,2.623,0.194,4.011C120.831,25.872,120.908,26.021,120.98,26.083z M144.902,15.479
	c0.23,0.887,0.59,1.74,1.065,2.59c0,1.337,0.017,2.43,0.07,3.303c0.031,0.872,0.134,1.626,0.316,2.265
	c0.173,0.633,0.419,1.209,0.755,1.713c0.343,0.517,0.804,1.055,1.408,1.641c0.688,0.361,1.393,0.603,2.113,0.669
	c0.721,0.078,1.443,0.042,2.173-0.086c0.72-0.124,1.44-0.332,2.147-0.611c0.716-0.275,1.364-0.569,1.967-0.878
	c0.42-0.326,0.922-0.676,1.511-1.053c0.591-0.386,1.184-0.645,1.814-0.783c0.517-0.149,0.949-0.136,1.296,0.038
	c0.359,0.191,0.69,0.388,1.021,0.655c0.333,0.266,0.661,0.523,0.992,0.761c0.318,0.246,0.706,0.382,1.154,0.382
	c0.603,0.143,1.193,0.093,1.755-0.123c0.573-0.213,1.091-0.484,1.54-0.799c0.905-0.685,1.839-1.425,2.789-2.173
	c0.95-0.753,1.814-1.568,2.579-2.438c0.773-0.878,1.379-1.827,1.854-2.898c0.463-1.066,0.661-2.232,0.573-3.548
	c-0.144-0.289-0.283-0.606-0.399-0.934c-0.13-0.339-0.276-0.628-0.448-0.9c-0.173-0.251-0.388-0.482-0.618-0.656
	c-0.244-0.164-0.547-0.258-0.923-0.258c-0.315-0.143-0.616-0.202-0.917-0.181c-0.292,0.014-0.593,0.08-0.893,0.181
	c-0.291,0.115-0.593,0.258-0.896,0.433c-0.299,0.18-0.604,0.355-0.92,0.482c-0.515,0.467-0.934,1.048-1.268,1.748
	c-0.345,0.697-0.715,1.286-1.091,1.763c-0.388,0.479-0.834,0.761-1.325,0.848c-0.5,0.086-1.151-0.248-1.983-1
	c-0.315-0.224-0.65-0.627-1.011-1.173c-0.371-0.556-0.776-1.072-1.232-1.595c-0.434-0.501-0.895-0.908-1.369-1.201
	c-0.49-0.274-0.991-0.274-1.498,0c-0.505,0.36-0.905,0.798-1.179,1.345c-0.262,0.532-0.491,1.106-0.677,1.732
	c-0.187,0.625-0.348,1.258-0.463,1.921c-0.141,0.649-0.313,1.273-0.518,1.886c-0.215,0.611-0.5,1.174-0.86,1.676
	c-0.347,0.511-0.822,0.925-1.423,1.237c-0.824,0.382-1.627,0.548-2.407,0.504c-0.776-0.049-1.465-0.259-2.041-0.655
	c-0.578-0.39-1.021-0.914-1.313-1.562c-0.301-0.655-0.388-1.401-0.242-2.246c0-0.703,0.142-1.359,0.42-1.979
	c0.285-0.624,0.602-1.241,0.944-1.848c0.346-0.612,0.651-1.23,0.926-1.849c0.288-0.625,0.43-1.288,0.43-1.988
	c0.144-0.632,0.161-1.234,0.071-1.798c-0.102-0.571-0.232-1.1-0.405-1.59c-0.143-0.753-0.456-1.329-0.919-1.718
	c-0.462-0.397-1.162-0.431-2.069-0.114c-0.565,0.144-1.124,0.496-1.658,1.028c-0.544,0.535-0.877,1.123-1.021,1.763
	c-0.085,0.866-0.155,1.754-0.188,2.656c-0.044,0.892-0.028,1.807,0.032,2.72C144.519,13.694,144.673,14.588,144.902,15.479z
	 M178.396,27.312c0.068,0.043,0.154,0.079,0.242,0.093c0.075,0.021,0.185,0.05,0.3,0.071c0.104,0.03,0.247,0.128,0.418,0.303
	c0.346,0.358,0.849,0.619,1.525,0.799c0.661,0.201,1.369,0.274,2.146,0.266c0.762-0.01,1.514-0.143,2.273-0.395
	c0.762-0.239,1.381-0.626,1.897-1.137c0.68-0.705,1.127-1.273,1.341-1.712c0.213-0.431,0.374-0.836,0.491-1.223
	c0.111-0.356,0.282-0.769,0.498-1.215c0.206-0.434,0.662-1.002,1.338-1.695c0.306-0.378,0.678-0.588,1.098-0.647
	c0.433-0.063,0.834,0.025,1.238,0.226c0.404,0.23,0.746,0.553,1.034,0.991c0.274,0.426,0.432,0.958,0.464,1.572
	c0.024,0.717,0.042,1.314,0.042,1.781c0,0.462,0.042,0.873,0.144,1.24c0.102,0.36,0.299,0.726,0.575,1.115
	c0.297,0.375,0.73,0.828,1.323,1.388c0.748,0.749,1.512,1.102,2.328,1.042c0.807-0.062,1.444-0.711,1.931-1.956
	c0.145-0.439,0.167-0.828,0.07-1.161c-0.101-0.336-0.243-0.658-0.413-0.971c-0.19-0.235-0.448-0.401-0.751-0.525
	c-0.289-0.115-0.591-0.222-0.907-0.307c-0.315-0.086-0.615-0.202-0.919-0.345c-0.301-0.146-0.567-0.382-0.795-0.692
	c-0.257-0.322-0.448-0.775-0.602-1.365c-0.159-0.569-0.232-1.335-0.232-2.296c0-0.525-0.082-1.446-0.214-2.785
	c-0.145-1.333-0.74-2.951-1.446-4.883c-0.114-0.274-0.334-0.584-0.334-0.886c0-0.304,0-0.595,0-0.888
	c0-0.291,0.12-0.567,0.036-0.828c-0.089-0.266-0.208-0.508-0.511-0.734c-0.23-0.235-0.533-0.331-0.967-0.264
	c-0.434,0.053-0.858,0.193-1.303,0.417c-0.434,0.21-0.839,0.468-1.211,0.778c-0.349,0.3-0.589,0.58-0.661,0.846
	c-0.144,0.24-0.21,0.456-0.195,0.652c0.012,0.2,0.071,0.4,0.171,0.593c0.098,0.194,0.217,0.382,0.348,0.577
	c0.129,0.221,0.23,0.427,0.316,0.657c0.286,2.1-0.42,4.05-2.132,5.883c-0.846,0.92-1.694,1.531-2.515,1.826
	c-0.821,0.298-1.469,0.097-1.916-0.566c-0.142-0.207-0.099-0.538,0.118-0.979c0.242-0.453,0.487-0.935,0.773-1.438
	c0.288-0.519,0.536-0.997,0.768-1.457c0.228-0.465,0.283-0.82,0.128-1.047c-0.142-0.318-0.257-0.536-0.314-0.678
	c-0.074-0.122-0.273-0.198-0.581-0.198c-0.675-0.17-1.275-0.141-1.784,0.076c-0.517,0.216-0.988,0.541-1.396,0.965
	c-0.441,0.453-0.833,0.943-1.209,1.505c-0.371,0.573-0.732,1.121-1.107,1.629c-0.603,1.079-1.063,2.253-1.392,3.521
	c-0.319,1.288-0.261,2.623,0.188,4.011C178.25,27.1,178.322,27.248,178.396,27.312z M56.803,164.244
	c-0.322-2.923-1.303-6.491-1.303-9.456v-0.025c0-0.117,1.367-3.125,1.467-4.162c0.201-2.128,2.188-4.029,1.829-6.259
	c-0.059-0.275,0.045-0.576-0.076-0.879c-0.181-0.502-0.21-1.005-0.311-1.523c-0.059-0.319-0.075-0.646-0.113-0.981
	c-0.042-0.428-0.037-0.846-0.037-1.265c0.002-0.041,0.021-0.081,0.021-0.115c-0.296-0.589,0.635-3.508,0.641-3.51
	c0.482-1.651,2.088-4.523,2.104-4.54c0,0,0.002,0.069,0.023,0.044c0.662-1.123,2.425-2.838,2.467-2.896
	c1.08-1.282,2.246-1.402,3.426-2.627c1.202-0.937,4.209-2.603,4.389-2.763c1.726-1.524,7.957-3.68,9.102-3.102
	c22.627-12.465,48.702-19.331,66.141-40.317c6.132-4.63,8.88-10.32,7.195-18.257c-3.124-14.732-14.272-17.956-26.777-19.619
	c-1.94-1.475-4.103-1.537-6.326-1.4l-2.151-0.319c-4.971-2.665-14.151,0.938-14.172,0.779C93.957,42.355,84.676,45.61,80.848,60.54
	c7.646-8.045,14.556-12.251,22.784-14.204c1.269-0.301,5.216-1.197,5.216-1.197c4.606-0.202,9.307-1.102,13.794-0.101
	c13.989,3.12,23.15,12.58,20.16,29.135c-3.325,10.445-13.749,12.146-21.627,15.634c-8.075,3.568-15.433-3.288-20.404-9.26
	c-2.404-2.927-7.772-8.238-1.901-13.59c6.108-5.749,10.763-16.428,21.578-6.418c0.001-0.007,0.007-0.008,0.008-0.015
	c0.259,0.101,0.522,0.202,0.783,0.322c2.462,1.022,4.108,4.949,4.108,4.949l-9.059,0.077c-10.907,1.842-3.829,7.63,0.238,11.2
	c0,0,6.051,0.367,7.454,0.281c0.921-0.056,2.903-4.885,4.745-5.764c0,0,1.073-8.427,0-10.944
	c-5.527-12.969-28.528-9.515-34.47,3.351c-2.126,1.503-3.492,3.677-4.031,6.161c-1.047,4.815-7.291,24.375-9.075,23.873
	c-3.404-0.918-6.835-0.529-10.021-1.529h-0.017c-0.18,0-0.663-1.845-0.885-1.881c-0.219,0-0.68-2.076-0.844-2.177
	c-3.125-1.942-6.078-4.769-8-7.653c-0.101-0.16-0.555-3.199-0.937-3.659c-1.043-2.224-1.669-4.642-2.49-6.951
	c-0.061-0.359-0.066-4.11,0.046-4.568c0.934-3.804,2.882-8.937,2.057-14.843c-0.082-0.596,0.245-1.184,0.583-1.745
	c0.021-0.08,0.082-0.142,0.124-0.225c1.923-4.347,2.145-9.398,5.592-13.087c0.46-0.381,0.923-0.721,1.382-1.023
	c7.856-5.39,17.116-2.467,25.519-2.684c28.479-0.744,56.982-0.143,85.486-0.281c5.871-0.021,10.034,2.705,13.888,6.533
	c7.554,3.685,5.452,9.862,4.129,15.852c-4.054,6.957,2.923,13.495,0.821,20.387c-0.964,10.325-6.953,17.096-15.571,22.009
	c-0.158,0.08-0.327,0.16-0.486,0.238c-8.275,4.168-16.475,8.54-25.313,11.468c-0.385,0.159-9.779,1.927-13.967,3.969
	c-6.675,3.244-11.588,9.361-17.159,10.949c-12.431,3.569-16.878,13.386-22.647,22.547c-1.52,2.406-3.182,5.988-1.999,8.088
	l2.229,2.166c0.356,0.519-0.169,1.238-0.169,2.369v0.134c1,6.762,8.091,12.313,14.32,13.808l1.396,0.121
	c6.617,5.118,22.973,4.548,23.46,4.414c3.626-0.125,7.345-0.242,10.995-0.386l8.182-1.86c1.433-0.174,12.59-5.937,13.278-11.666
	c-5.077,1.498-8.215,4.75-11.439,7.898c-1.441,1.619-4.241,0.598-6.036,1.524c0,0-8.542,2.118-11.611,1.817
	c-0.223,0.101-17.865-1.423-24.018-8.176c0.721,0.721-7.703-5.951-6.025-15.729c1.503-8.562,3.027-17.858,12.53-21.31
	c12.548-4.532,23.168-1.063,29.861,8.434c5.192,7.364,0.519,17.424-10.823,23.378c-0.677,0.763-1.564,1.358-2.302,2.087
	c-0.763,0-1.509-0.085-2.203-0.227c-2.388-0.536-4.389-2.044-5.897-4.791c-0.302-0.863-0.218-2.621-0.159-2.78
	c0.076-0.361,0.261-0.721,0.445-1.047c0.016-0.043,0.817-1.099,1.254-1.559c2.269,0.52,4.571,0.795,6.896-0.168
	c-0.019,0.026,0.013,0.068-0.004,0.085c0.017,0,0.09-0.017,0.111-0.017c3.31-4.834,3.73-9.408-2.323-11.929
	c-5.49-2.286-9.663,0.361-11.709,5.612c-0.799,2.086-2.179,4.23-2.179,6.333v0.015c0,0.068,0.198,0.144,0.278,0.228
	c1.059,8.059,6.005,11.928,13.519,13.428c9.539,0.158,15.846-6.189,22.538-11.543c0,0,27.316-21.677,30.062-18.519l1.679,1.28
	c1.806,1.583,1.947,5.185,1.966,5.194c1.528,3.858-0.041,11.788-0.041,11.86v0.024c0,0.536,0.632,1.055,0.632,1.599
	c-0.12,1.986,0.929,5.813,0.965,7.773c0,0.158-0.49,7.078-0.649,8.761l-0.398,3.062c-0.561,1.063-1.152,2.005-1.798,2.907
	c-0.017,0.019-0.003,0.007-0.003,0.007c-3.911,5.417-9.516,8.446-16.166,9.929c-13.494,3.008-27.06,3.281-40.502-0.107
	c-3.67-0.96-7.094-1.139-10.788-0.721c-9.942,1.101-19.921,1.825-29.8-0.2c-4.75-0.982-9.461,0.223-14.215,0.223h-0.017
	c-0.763,0-1.525,0.969-2.286,1.193c-1.16,0.318-2.325,2.339-3.506,2.702c-0.842,0.265-5.955-0.416-7.698-0.657
	c-1.043-0.22-1.942-3.699-2.826-4.025c-0.038-0.016-3.206-0.562-3.507-0.763C58.641,181.719,57.443,172.72,56.803,164.244z
	 M107.488,181.515c-0.167,0.175-0.226,0.345-0.152,0.505c0.063,0.157,0.201,0.289,0.408,0.417c0.109,0.084,0.26,0.173,0.435,0.275
	c0.191,0.112,0.352,0.144,0.501,0.14c0.131-0.015,0.269-0.125,0.383-0.316c0.109-0.185,0.166-0.529,0.166-1.02
	c-0.136-0.315-0.433-0.488-0.865-0.487C107.918,181.029,107.631,181.199,107.488,181.515z M84.306,178.641
	c0.084,0.239,0.163,0.387,0.23,0.441c0.072,0.062,0.151,0.088,0.236,0.104c0.086,0.013,0.182,0.041,0.301,0.071
	c0.111,0.03,0.253,0.131,0.427,0.305c0.338,0.354,0.847,0.615,1.512,0.804c0.66,0.197,1.38,0.273,2.15,0.26
	c0.764-0.017,1.532-0.145,2.274-0.39c0.755-0.247,1.388-0.633,1.898-1.153c0.685-0.702,1.129-1.265,1.345-1.697
	c0.216-0.432,0.382-0.847,0.489-1.221c0.114-0.388,0.274-0.776,0.491-1.224c0.214-0.432,0.66-0.994,1.343-1.685
	c0.303-0.377,0.679-0.604,1.103-0.659c0.433-0.062,0.841,0.026,1.237,0.241c0.401,0.217,0.747,0.537,1.022,0.979
	c0.285,0.433,0.444,0.963,0.473,1.571c0.022,0.717,0.037,1.309,0.038,1.769c0,0.477,0.056,0.892,0.149,1.25
	c0.107,0.361,0.296,0.736,0.583,1.098c0.279,0.399,0.72,0.86,1.315,1.404c0.735,0.751,1.513,1.098,2.319,1.052
	c0.817-0.067,1.461-0.718,1.94-1.971c0.146-0.429,0.165-0.818,0.065-1.149c-0.106-0.334-0.229-0.65-0.396-0.979
	c-0.208-0.228-0.457-0.402-0.753-0.519c-0.296-0.114-0.604-0.217-0.913-0.315c-0.317-0.071-0.627-0.188-0.921-0.333
	c-0.301-0.155-0.56-0.374-0.805-0.703c-0.243-0.316-0.435-0.764-0.592-1.352c-0.158-0.577-0.229-1.339-0.229-2.305
	c0-0.53-0.05-1.451-0.192-2.776c-0.145-1.338-0.835-2.966-1.542-4.878c-0.119-0.289-0.405-0.603-0.405-0.906c0-0.3,0-0.586,0-0.875
	c0-0.303,0.185-0.577,0.104-0.838c-0.086-0.257-0.202-0.504-0.519-0.732c-0.223-0.243-0.481-0.316-0.92-0.262
	c-0.445,0.048-0.847,0.189-1.293,0.419c-0.438,0.215-0.81,0.476-1.191,0.774c-0.365,0.307-0.592,0.593-0.671,0.84
	c-0.138,0.243-0.199,0.459-0.185,0.66c0.015,0.202,0.073,0.401,0.169,0.587c0.1,0.201,0.218,0.391,0.345,0.593
	c0.13,0.2,0.233,0.431,0.32,0.645c0.286,2.103-0.426,4.061-2.13,5.886c-0.857,0.935-1.692,1.529-2.519,1.83
	c-0.821,0.285-1.46,0.1-1.914-0.575c-0.145-0.203-0.102-0.521,0.128-0.978c0.226-0.446,0.484-0.925,0.771-1.429
	c0.274-0.516,0.54-1.001,0.765-1.466c0.229-0.459,0.271-0.807,0.122-1.037c-0.139-0.317-0.246-0.548-0.316-0.678
	c-0.067-0.13-0.261-0.188-0.57-0.188c-0.684-0.187-1.28-0.168-1.791,0.058c-0.511,0.22-0.978,0.537-1.403,0.969
	c-0.433,0.444-0.828,0.937-1.195,1.509c-0.373,0.576-0.746,1.11-1.105,1.63c-0.599,1.075-1.06,2.242-1.39,3.523
	C83.787,175.918,83.845,177.255,84.306,178.641z M63.119,166.311c0.073,0.126,0.176,0.284,0.298,0.481
	c0.114,0.193,0.302,0.594,0.553,1.192c0.146,0.235,0.255,0.477,0.325,0.736c0.06,0.257,0.117,0.512,0.175,0.754
	c0.043,0.233,0.104,0.485,0.175,0.704c0.058,0.24,0.167,0.421,0.315,0.562c0.178,0.313,0.221,0.587,0.112,0.818
	c-0.104,0.246-0.224,0.367-0.366,0.372c0.159,0.482,0.138,0.843-0.051,1.064c-0.192,0.224-0.442,0.507-0.739,0.835
	c0.015,0.458-0.071,0.882-0.275,1.262c-0.201,0.383-0.29,0.89-0.27,1.493c0.017,0.459,0.132,0.872,0.346,1.237
	c0.205,0.357,0.47,0.674,0.781,0.956c0.307,0.305,0.641,0.596,1.004,0.872c0.369,0.275,0.71,0.563,1.028,0.827
	c0.867,0.286,1.766,0.255,2.689-0.095c0.501-0.293,0.84-0.693,1.023-1.187c0.179-0.493,0.269-1.007,0.263-1.579
	c-0.008-0.577-0.053-1.136-0.145-1.707c-0.094-0.586-0.148-1.133-0.166-1.652c0.221-0.239,0.396-0.573,0.547-0.997
	c0.143-0.425,0.323-0.836,0.548-1.255c0.229-0.417,0.546-0.784,0.941-1.089c0.405-0.304,0.974-0.465,1.711-0.492
	c0.772,0.117,1.279,0.415,1.525,0.886c0.241,0.466,0.374,1.01,0.369,1.643c0.014,0.619-0.036,1.255-0.144,1.902
	c-0.1,0.639-0.118,1.189-0.043,1.659c0.24,0.495,0.372,1.009,0.364,1.514c0.007,0.478,0.005,0.967-0.009,1.453
	c-0.012,0.478,0.019,0.949,0.093,1.396c0.074,0.471,0.307,0.925,0.695,1.384c0.288,0.221,0.574,0.33,0.862,0.344
	c0.279,0.006,0.565-0.06,0.837-0.186c0.288-0.14,0.565-0.291,0.844-0.473c0.276-0.174,0.566-0.352,0.878-0.496
	c0.246-0.135,0.421-0.327,0.512-0.575c0.092-0.234,0.112-0.496,0.061-0.757c-0.053-0.255-0.169-0.509-0.351-0.762
	c-0.174-0.225-0.425-0.403-0.737-0.504c-0.257-0.083-0.432-0.189-0.502-0.317c-0.077-0.138-0.125-0.294-0.146-0.498
	c-0.022-0.199-0.045-0.444-0.068-0.718c-0.023-0.272-0.113-0.601-0.268-1.011c-0.248-0.537-0.382-1.097-0.402-1.659
	c-0.02-0.562-0.003-1.153,0.047-1.773c0.044-0.604,0.101-1.238,0.144-1.873c0.049-0.638,0.019-1.311-0.093-1.988
	c-0.037-1.076-0.161-1.978-0.366-2.676c-0.211-0.699-0.514-1.267-0.909-1.681c-0.403-0.42-0.882-0.721-1.437-0.905
	c-0.566-0.192-1.232-0.315-2.004-0.373c-0.453,0.016-0.845,0.175-1.173,0.485c-0.327,0.298-0.646,0.642-0.948,1.029
	c-0.296,0.384-0.603,0.77-0.918,1.168c-0.317,0.373-0.653,0.656-1.017,0.803c-0.32-0.122-0.514-0.331-0.597-0.602
	c-0.081-0.271-0.199-0.569-0.347-0.882c-0.253-0.449-0.331-0.82-0.252-1.071c0.074-0.276,0.175-0.496,0.29-0.716
	c0.123-0.203,0.2-0.424,0.236-0.642c0.036-0.217-0.096-0.525-0.392-0.922c-0.651-0.697-1.296-1.034-1.936-1.013
	c-0.64,0.022-1.399,0.135-2.271,0.328c-0.612,0.204-1.087,0.608-1.404,1.211c-0.319,0.603-0.467,1.285-0.439,2.045
	c0.164,0.601,0.279,0.998,0.359,1.214C62.967,166.002,63.045,166.173,63.119,166.311z M93.545,192.377l-0.346-0.259
	c-0.564-0.202-1.138-0.2-1.727,0.015c-0.577,0.224-1.111,0.548-1.592,0.991c-0.488,0.43-0.884,0.931-1.194,1.469
	c-0.316,0.561-0.475,1.049-0.475,1.483c0,0.729,0.05,1.338,0.137,1.823c0.08,0.504,0.2,0.966,0.338,1.397
	c0.138,0.441,0.296,0.873,0.468,1.333c0.173,0.451,0.346,0.986,0.512,1.618c0.315,0.703,0.41,1.541,0.302,2.507
	c-0.121,0.987-0.323,2.011-0.62,3.075c-0.295,1.08-0.617,2.116-0.962,3.136c-0.338,1.009-0.583,1.902-0.722,2.705
	c0-0.101-0.086-0.028-0.258,0.175c-0.172,0.225-0.389,0.49-0.656,0.81c-0.272,0.325-0.581,0.656-0.941,1.003
	c-0.353,0.347-0.727,0.604-1.107,0.763c-0.382,0.158-0.77,0.188-1.15,0.07c-0.383-0.119-0.728-0.474-1.044-1.05
	c-0.454-0.634-0.813-1.222-1.063-1.756c-0.255-0.532-0.462-1.084-0.619-1.639c-0.158-0.546-0.289-1.11-0.404-1.715
	c-0.109-0.589-0.251-1.265-0.424-2.039c-0.145-0.477-0.188-0.996-0.131-1.5c0.059-0.532,0.139-1.051,0.254-1.595
	c0.114-0.547,0.235-1.081,0.366-1.641c0.128-0.546,0.194-1.106,0.194-1.643c0.193-0.358,0.408-0.903,0.633-1.639
	c0.229-0.747,0.358-1.474,0.382-2.217c0.035-0.748-0.087-1.397-0.36-1.983c-0.267-0.579-0.799-0.896-1.598-0.952
	c-0.762-0.143-1.311,0-1.633,0.434c-0.337,0.439-0.56,1.004-0.69,1.694c-0.123,0.694-0.194,1.455-0.209,2.264
	c-0.015,0.805-0.08,1.538-0.194,2.18c-0.086,0.058-0.187,0.033-0.296-0.082c-0.12-0.116-0.258-0.229-0.431-0.303
	c-0.166-0.1-0.367-0.127-0.591-0.1c-0.229,0.029-0.474,0.186-0.728,0.484c-0.308,0.32-0.444,0.637-0.401,0.94
	c0.043,0.33,0.145,0.656,0.316,0.993c0.173,0.332,0.358,0.676,0.549,1.021c0.207,0.345,0.301,0.709,0.301,1.094l-1.704,5.828
	c-0.14,0.402-0.288,0.774-0.446,1.107c-0.152,0.332-0.433,0.589-0.83,0.762c-0.396,0.116-0.82,0.053-1.251-0.173
	c-0.439-0.242-0.85-0.532-1.223-0.919c-0.568-0.806-0.862-1.666-0.893-2.563c-0.028-0.892,0.016-1.872,0.124-2.948
	c0.121-1.051,0.209-2.204,0.28-3.445c0.072-1.253-0.08-2.629-0.446-4.14c-0.259-1.006-0.569-1.9-0.941-2.677
	c-0.361-0.775-1.061-1.453-2.081-2.063c-0.426-0.269-0.9-0.425-1.433-0.454c-0.524-0.045-1.043-0.006-1.555,0.101
	c-0.51,0.123-0.992,0.315-1.445,0.587c-0.46,0.275-0.855,0.606-1.192,0.98c-0.288,0.441-0.489,0.922-0.6,1.467
	c-0.113,0.528-0.164,1.067-0.15,1.607c0.021,0.536,0.094,1.068,0.239,1.605c0.137,0.531,0.315,1.014,0.511,1.465
	c0.368,1.131,0.647,2.144,0.85,3.035c0.199,0.907,0.401,1.77,0.617,2.59c0.216,0.836,0.475,1.66,0.79,2.504
	c0.31,0.838,0.778,1.795,1.404,2.866c0.424,0.702,0.906,1.497,1.43,2.401c0.526,0.893,1.112,1.754,1.771,2.545
	c0.648,0.796,1.368,1.457,2.146,1.976c0.783,0.531,1.646,0.746,2.581,0.649c0.567,0,1.108-0.144,1.619-0.449
	c0.51-0.302,0.993-0.701,1.446-1.18c0.454-0.475,0.857-0.98,1.217-1.537c0.353-0.551,0.66-1.084,0.913-1.615
	c0.229-0.402,0.466-0.849,0.711-1.325c0.237-0.487,0.599-0.775,1.08-0.892l2.898,4.272c0,0.781,0.116,1.5,0.34,2.189
	c0.229,0.677,0.711,1.225,1.453,1.628c0.253,0,0.497,0.069,0.741,0.187c0.237,0.1,0.475,0.055,0.711-0.187
	c0.643-1.008,1.217-1.975,1.699-2.881c0.481-0.922,0.922-1.842,1.317-2.777c0.396-0.919,0.754-1.88,1.071-2.863
	c0.311-0.992,0.626-2.056,0.934-3.223c0.259-0.82,0.469-1.671,0.642-2.561c0.167-0.907,0.368-1.814,0.598-2.736
	c0.224-0.905,0.511-1.795,0.849-2.675c0.338-0.868,0.813-1.682,1.41-2.433c0.339-0.402,0.604-0.948,0.806-1.631
	c0.194-0.676,0.297-1.36,0.297-2.066c0-0.691-0.11-1.344-0.34-1.956C94.471,193.124,94.084,192.666,93.545,192.377z
	 M111.486,207.437c-0.186-0.285-0.316-0.572-0.402-0.894c-0.23-0.229-0.453-0.343-0.663-0.343c-0.208,0-0.43,0.016-0.659,0.056
	c-0.226,0.058-0.441,0.101-0.662,0.144c-0.21,0.043-0.434-0.011-0.656-0.157c-0.259,0-0.446,0.071-0.581,0.2
	c-0.125,0.118-0.245,0.288-0.354,0.476c-0.121,0.188-0.237,0.389-0.367,0.605c-0.13,0.218-0.309,0.403-0.531,0.542
	c0.31,0.64,0.518,1.329,0.612,2.064c0.105,0.746-0.002,1.495-0.312,2.242c-0.314,0.476-0.691,0.879-1.129,1.222
	c-0.444,0.35-0.958,0.457-1.561,0.306c-0.454-0.174-0.72-0.46-0.785-0.85c-0.077-0.39-0.106-0.821-0.106-1.283
	c0-0.473,0.085-0.921,0.252-1.393c0.172-0.468,0.386-0.899,0.64-1.326c0.259-0.417,0.539-0.82,0.849-1.194
	c0.315-0.373,0.617-0.729,0.898-1.049c0.225-0.232,0.455-0.405,0.685-0.549c0.224-0.128,0.432-0.249,0.618-0.364
	c0.182-0.11,0.347-0.225,0.49-0.339c0.138-0.128,0.252-0.289,0.336-0.534c-0.142-0.317-0.244-0.617-0.315-0.863
	c-0.071-0.259-0.266-0.401-0.575-0.401c-1.505,0-2.979,0.257-4.412,0.771c-1.438,0.497-2.705,1.228-3.812,2.148
	c-1.108,0.937-1.993,2.032-2.646,3.324c-0.649,1.267-0.93,2.676-0.849,4.207c0.084,1.132,0.335,2.206,0.747,3.22
	c0.411,1.009,0.956,1.816,1.64,2.431c0.678,0.606,1.504,0.979,2.468,1.078c0.972,0.101,2.051-0.2,3.239-0.891
	c0.229,0.131,0.497,0.086,0.812-0.157c0.315-0.244,0.611-0.492,0.894-0.736c0.287-0.255,0.524-0.4,0.726-0.458l1.808-0.905
	c-0.015-0.707,0.277-1.297,0.876-1.744c0.368-0.289,0.704-0.688,0.979-1.152c0.286-0.501,0.553-0.99,0.792-1.536
	c0.237-0.531,0.48-1.08,0.726-1.627c0.237-0.549,0.497-1.038,0.784-1.47c0.229-0.389,0.329-0.748,0.301-1.077
	c-0.029-0.329-0.127-0.632-0.278-0.921C111.841,207.985,111.674,207.711,111.486,207.437z M135.783,213.831
	c-0.333-0.721-0.734-1.438-1.192-2.131c-0.45-0.703-0.924-1.393-1.4-2.059c-0.487-0.688-0.907-1.379-1.28-2.083
	c-0.315-0.576-0.432-1.196-0.359-1.871c0.072-0.663,0.242-1.366,0.506-2.103c0.271-0.733,0.6-1.487,0.963-2.242
	c0.362-0.751,0.703-1.511,0.978-2.245c0.286-0.727,0.475-1.457,0.577-2.176c0.099-0.703,0.017-1.364-0.232-1.971
	c-0.313-0.749-0.616-1.509-0.893-2.25c-0.287-0.733-0.588-1.406-0.904-2.021c-0.459-0.489-0.967-0.82-1.556-0.971
	c-0.576-0.169-1.151,0.063-1.726,0.667c-0.084,0.318-0.232,0.771-0.462,1.38c-0.231,0.59-0.451,1.209-0.661,1.858
	c-0.215,0.661-0.375,1.279-0.474,1.87c-0.097,0.604-0.073,1.045,0.064,1.337c0.458,0.779,0.666,1.424,0.619,1.888
	c-0.038,0.488-0.14,0.929-0.297,1.335c-0.157,0.405-0.258,0.838-0.301,1.32c-0.037,0.467,0.165,1.112,0.618,1.89
	c0.459,0.763,0.907,1.523,1.367,2.317c0.458,0.775,0.677,1.639,0.677,2.56c0,0.461-0.074,0.838-0.232,1.15
	c-0.157,0.306-0.341,0.578-0.548,0.809c-0.225,0.231-0.442,0.479-0.687,0.736c-0.239,0.271-0.428,0.586-0.577,0.959
	c-0.172,1.104-0.49,1.988-0.958,2.659c-0.468,0.668-1.005,1.185-1.618,1.545c-0.605,0.359-1.268,0.606-1.979,0.738
	c-0.713,0.126-1.395,0.213-2.05,0.282c-0.597-0.287-0.894-0.801-0.894-1.523c0.282-0.23,0.506-0.476,0.656-0.72
	c0.163-0.257,0.303-0.475,0.431-0.696c0.13-0.225,0.273-0.396,0.426-0.541c0.157-0.132,0.393-0.232,0.703-0.261
	c0.203,0.289,0.433,0.505,0.706,0.647c0.266,0.146,0.627,0.133,1.086-0.047c0.252-0.025,0.432-0.123,0.532-0.281
	c0.095-0.158,0.167-0.32,0.216-0.519c0.037-0.188,0.052-0.363,0.037-0.534c-0.016-0.186-0.021-0.316-0.021-0.401
	c-0.081-0.472-0.26-0.851-0.527-1.168c-0.271-0.329-0.587-0.574-0.941-0.774c-0.354-0.187-0.726-0.316-1.108-0.404
	c-0.387-0.099-0.728-0.131-1.041-0.131c-0.599-0.058-1.24,0.101-1.944,0.461c-0.69,0.349-1.373,0.863-2.042,1.498
	c-0.669,0.642-1.276,1.367-1.836,2.174c-0.547,0.817-0.992,1.637-1.316,2.477c-0.325,0.847-0.505,1.661-0.533,2.431
	c-0.026,0.792,0.152,1.465,0.549,2.011c0.631,0.087,1.085,0.292,1.387,0.625c0.303,0.339,0.555,0.699,0.771,1.076
	c0.215,0.373,0.461,0.728,0.747,1.036c0.281,0.329,0.706,0.501,1.275,0.53c0.624,0.053,1.266,0.014,1.919-0.13
	c0.656-0.153,1.269-0.331,1.852-0.574c0.588-0.231,1.121-0.46,1.602-0.706c0.478-0.258,0.879-0.461,1.189-0.633
	c0.741-0.321,1.345-0.719,1.813-1.181c0.469-0.455,0.922-0.905,1.365-1.322c0.44-0.43,0.916-0.763,1.422-1.007
	c0.515-0.244,1.179-0.291,2.009-0.145c0.594,0.084,1.182,0.177,1.744,0.272c0.564,0.104,1.052,0.114,1.453,0.016
	c0.401-0.07,0.691-0.302,0.892-0.662c0.201-0.36,0.23-0.966,0.087-1.81C136.342,215.312,136.128,214.565,135.783,213.831z
	 M162.074,214.084c-0.535-0.258-1.156-0.389-1.847-0.389s-1.408,0.061-2.128,0.192c-0.721,0.14-1.35,0.196-1.858,0.196
	c-0.372-0.056-0.717-0.072-1.063-0.057c-0.346,0.003-0.676,0.028-0.979,0.057c-0.317,0.032-0.632,0.032-0.949,0
	c-0.313-0.028-0.604-0.113-0.892-0.258c-0.389-0.389-0.572-0.719-0.504-1.005c0.059-0.292,0.187-0.584,0.402-0.879
	c0.217-0.28,0.461-0.567,0.749-0.863c0.286-0.29,0.474-0.607,0.549-0.951c0.23-0.154,0.386-0.358,0.472-0.619
	c0.087-0.259,0.131-0.533,0.146-0.822c0.014-0.286,0.011-0.574-0.028-0.861c-0.017-0.289-0.031-0.546-0.031-0.76
	c-0.288-1.084-0.821-1.975-1.623-2.638c-0.792-0.673-1.642-1.234-2.519-1.697c-0.39-0.145-0.821-0.313-1.268-0.504
	c-0.46-0.197-0.979-0.343-1.541-0.487c-0.573-0.116-1.205-0.202-1.899-0.219c-0.689-0.038-1.48,0.017-2.36,0.16
	c-0.571,0.145-1.007,0.358-1.319,0.649c-0.307,0.288-0.682,0.603-1.112,0.919c-0.218,0.146-0.386,0.375-0.487,0.691
	c-0.103,0.325-0.161,0.676-0.188,1.049c-0.03,0.38-0.028,0.765,0.016,1.166c0.043,0.375,0.098,0.72,0.155,1.007
	c0.172,0.418,0.493,0.721,0.979,0.938c0.489,0.214,1.024,0.387,1.614,0.503c0.603,0.115,1.21,0.187,1.828,0.218
	c0.633,0.025,1.191,0.041,1.668,0.041c0.145,0.185,0.303,0.375,0.472,0.632c0.162,0.244,0.406,0.447,0.723,0.634
	c0.144,0.519,0.112,0.934-0.111,1.238c-0.206,0.303-0.468,0.563-0.78,0.788c-0.316,0.205-0.631,0.409-0.938,0.607
	c-0.314,0.186-0.502,0.432-0.56,0.714c-0.399,0.149-0.693,0.335-0.918,0.582c-0.206,0.244-0.39,0.532-0.549,0.86
	c-0.158,0.317-0.291,0.636-0.42,0.979c-0.141,0.33-0.3,0.639-0.489,0.965c-0.355,0.245-0.589,0.52-0.731,0.836
	c-0.145,0.257-0.217,0.575-0.217,0.958c0,0.381,0.204,0.797,0.593,1.259c0.461,0.468,1.007,0.817,1.65,1.063
	c0.646,0.248,1.31,0.377,2,0.418c0.693,0.029,1.383-0.071,2.063-0.331c0.688-0.245,1.28-0.634,1.794-1.149
	c0.362-0.145,0.62-0.347,0.765-0.605s0.229-0.547,0.259-0.848c0.027-0.306,0.017-0.621-0.026-0.965
	c-0.042-0.331-0.071-0.649-0.071-0.979c0.153-0.144,0.286-0.2,0.431-0.173c0.145,0.029,0.304-0.115,0.477-0.434
	c0.733,0,1.337-0.015,1.811-0.058s1.007,0.001,1.596,0.158c0.373-0.101,0.72-0.07,1.065,0.101c0.345,0.158,0.677,0.374,1.007,0.621
	c0.317,0.272,0.633,0.533,0.934,0.791c0.293,0.258,0.606,0.43,0.922,0.52c0.821,0.266,1.457,0.286,1.914,0.097
	c0.448-0.213,0.906-0.457,1.356-0.747c0.182-0.086,0.344-0.214,0.516-0.345c0.174-0.146,0.329-0.289,0.443-0.437
	c0.132-0.141,0.216-0.299,0.262-0.484c0.031-0.171-0.001-0.346-0.145-0.523C162.976,214.86,162.619,214.345,162.074,214.084z
	 M171.898,195.469c-0.355-0.184-0.661-0.429-0.951-0.717c-0.429-0.174-0.891-0.201-1.423-0.104
	c-0.503,0.103-0.966,0.215-1.392,0.331c-1.194,0.586-1.963,1.463-2.306,2.661c0,0.403-0.015,0.806-0.03,1.21
	c-0.029,0.403,0.087,0.763,0.373,1.038c0.105,0.612,0.419,1.066,0.909,1.381c0.506,0.3,1.036,0.531,1.6,0.676
	c0.572,0,1.122-0.13,1.67-0.376c0.529-0.244,1.045-0.515,1.493-0.805c1.108-1.135,1.369-2.563,0.763-4.315
	C172.488,195.988,172.257,195.67,171.898,195.469z M173.643,211.771c-0.204-0.631-0.419-1.327-0.65-2.087
	c-0.229-0.76-0.489-1.535-0.773-2.329c-0.288-0.792-0.607-1.496-0.969-2.103c-0.384-0.619-0.789-1.079-1.247-1.407
	c-0.464-0.309-0.993-0.389-1.616-0.215c-0.145,0-0.287,0.021-0.418,0.05c-0.144,0.021-0.286,0.134-0.432,0.307
	c-0.488,0.289-0.804,0.647-0.947,1.108c-0.146,0.459-0.217,0.935-0.247,1.453c-0.027,0.532-0.027,1.067,0,1.611
	c0.03,0.55-0.027,1.081-0.173,1.57c-0.286,1.097-0.498,2.217-0.617,3.351c-0.142,1.136-0.058,2.189,0.172,3.167
	c0.244,0.994,0.719,1.83,1.453,2.534c0.72,0.698,1.786,1.147,3.21,1.339c0.963,0.24,1.829,0.169,2.576-0.229
	c0.75-0.401,1.323-0.952,1.711-1.685c0.378-0.712,0.562-1.541,0.535-2.448c-0.032-0.921-0.331-1.783-0.905-2.6
	C174.085,212.867,173.859,212.42,173.643,211.771z M201.562,215.687c0.012,0.262-0.073,0.562-0.288,0.839
	c-0.302,0.486-0.676,0.747-1.12,0.768c-0.434,0.019-0.982-0.135-1.643-0.412c-0.173-0.059-0.29-0.143-0.387-0.221
	c-0.086-0.094-0.165-0.166-0.272-0.226c-0.101-0.056-0.231-0.085-0.378-0.085c-0.159,0-0.392,0.044-0.705,0.131
	c-0.591,0.241-1.082,0.442-1.469,0.617c-0.386,0.172-0.761,0.34-1.119,0.49c-0.347,0.17-0.719,0.331-1.099,0.511
	c-0.387,0.165-0.874,0.378-1.468,0.609c-1.203,0.491-2.473,0.765-3.839,0.82c-1.353,0.071-2.59-0.211-3.666-0.82
	c-0.822-0.375-1.602-0.821-2.347-1.336c-0.734-0.503-1.341-1.094-1.828-1.738c-0.49-0.64-0.804-1.386-0.937-2.197
	c-0.146-0.815-0.029-1.705,0.344-2.686c0.446-1.58,1.124-3.008,2.028-4.304c0.893-1.291,2.102-2.313,3.632-3.054
	c0.703-0.327,1.424-0.557,2.142-0.684c0.702-0.13,1.396-0.131,2.056-0.03c0.677,0.128,1.281,0.387,1.83,0.79
	c0.562,0.404,1.049,1.009,1.479,1.798c0.361,0.494,0.666,1.111,0.908,1.799c0.256,0.677,0.388,1.369,0.432,2.075
	c0.041,0.719-0.031,1.398-0.242,2.058c-0.192,0.658-0.566,1.211-1.098,1.672c-0.601,0.456-1.279,0.748-2.028,0.861
	c-0.75,0.127-1.536,0.143-2.345,0.083c-0.808-0.083-1.611-0.215-2.404-0.4c-0.79-0.176-1.539-0.374-2.216-0.544
	c0,0.547,0.162,1.001,0.493,1.351c0.327,0.329,0.73,0.63,1.234,0.832c0.489,0.202,1.049,0.333,1.67,0.404
	c0.632,0.083,1.236,0.126,1.815,0.129c0.585,0.015,1.119,0.012,1.596-0.015c0.484-0.029,0.862-0.043,1.124-0.043
	c0.454-0.088,0.917-0.229,1.379-0.417c0.473-0.188,0.905-0.322,1.322-0.409c0.405-0.086,0.781-0.086,1.123,0
	c0.346,0.087,0.603,0.364,0.762,0.826c0.604-0.088,1.094-0.212,1.455-0.359c0.371-0.132,0.689-0.273,0.937-0.402
	c0.26-0.13,0.502-0.247,0.746-0.349c0.246-0.099,0.533-0.167,0.878-0.167c0.26,0,0.491,0.081,0.722,0.214
	c0.228,0.126,0.416,0.299,0.557,0.489C201.462,215.163,201.549,215.401,201.562,215.687z M184.453,207.052
	c0.084,0.306,0.228,0.523,0.417,0.62c0.213,0.101,0.434,0.153,0.688,0.153c0.259,0,0.533-0.029,0.808-0.066
	c0.288-0.03,0.533-0.068,0.777-0.068c0.304,0,0.589-0.118,0.818-0.384c0.246-0.255,0.363-0.556,0.363-0.873
	c-0.307-0.461-0.624-0.731-0.938-0.807c-0.317-0.071-0.688-0.1-1.148-0.1c-0.447,0-0.834,0.172-1.125,0.505
	C184.811,206.391,184.594,206.723,184.453,207.052z"/>
</svg>
