<svg width="70" height="70" viewBox="0 0 92 80" fill="none" xmlns="http://www.w3.org/2000/svg">
<path d="M38.873 0V52.055H34.144V45.602C32.13 48.065 29.87 49.916 27.365 51.159C24.859 52.403 22.121 53.019 19.147 53.019C13.862 53.019 9.351 51.096 5.611 47.243C1.869 43.388 0 38.699 0 33.174C0 27.765 1.887 23.139 5.661 19.296C9.434 15.453 13.974 13.529 19.283 13.529C22.351 13.529 25.122 14.187 27.603 15.501C30.087 16.812 32.263 18.778 34.143 21.403V0H38.873ZM19.678 18.194C17.005 18.194 14.536 18.852 12.277 20.175C10.013 21.498 8.213 23.355 6.879 25.742C5.539 28.133 4.871 30.663 4.871 33.328C4.871 35.974 5.548 38.5 6.895 40.914C8.242 43.327 10.052 45.206 12.327 46.549C14.6 47.898 17.039 48.568 19.646 48.568C22.271 48.568 24.764 47.904 27.115 46.57C29.471 45.236 31.279 43.433 32.548 41.155C33.817 38.882 34.45 36.321 34.45 33.468C34.45 29.121 33.027 25.49 30.184 22.568C27.336 19.651 23.836 18.194 19.678 18.194Z" fill="#616161"/>
<path d="M-1.09863e-06 1.004H4.905V6.713C6.367 4.464 7.914 2.779 9.536 1.67C11.159 0.556 12.855 -2.05994e-07 14.621 -2.05994e-07C15.938 -2.05994e-07 17.36 0.445 18.872 1.327L16.369 5.566C15.36 5.114 14.512 4.882 13.83 4.882C12.226 4.882 10.68 5.572 9.191 6.951C7.703 8.326 6.578 10.462 5.795 13.362C5.198 15.59 4.905 20.09 4.905 26.864V40.507H-1.09863e-06V1.004Z" transform="translate(43.127 11.3911)" fill="#616161"/>
<path d="M33.648 26.376L37.744 28.543C36.4 31.197 34.851 33.336 33.088 34.968C31.33 36.599 29.347 37.839 27.15 38.689C24.943 39.536 22.454 39.964 19.674 39.964C13.507 39.964 8.688 37.933 5.219 33.868C1.74 29.804 -5.79834e-07 25.213 -5.79834e-07 20.085C-5.79834e-07 15.266 1.468 10.974 4.411 7.198C8.144 2.4 13.139 7.6294e-08 19.392 7.6294e-08C25.831 7.6294e-08 30.979 2.462 34.824 7.373C37.555 10.842 38.947 15.173 38.991 20.367H5.003C5.096 24.783 6.497 28.4 9.209 31.223C11.917 34.045 15.272 35.453 19.257 35.453C21.175 35.453 23.047 35.119 24.871 34.445C26.687 33.775 28.235 32.882 29.51 31.767C30.785 30.654 32.166 28.853 33.648 26.376ZM33.648 16.141C32.996 13.531 32.052 11.452 30.811 9.89C29.572 8.328 27.929 7.071 25.893 6.116C23.856 5.159 21.709 4.684 19.461 4.684C15.752 4.684 12.568 5.882 9.905 8.282C7.954 10.029 6.486 12.649 5.484 16.142H33.648V16.141Z" transform="translate(53.008 13.2949)" fill="#616161"/>
<path d="M9.53674e-09 19.754L2.091 18.554C3.566 21.148 5.268 22.442 7.197 22.442C8.022 22.442 8.8 22.262 9.526 21.89C10.25 21.523 10.801 21.029 11.18 20.413C11.561 19.79 11.75 19.138 11.75 18.441C11.75 17.65 11.47 16.878 10.912 16.12C10.143 15.072 8.735 13.816 6.693 12.345C4.638 10.859 3.363 9.792 2.86 9.126C1.991 8.018 1.556 6.813 1.556 5.524C1.556 4.501 1.812 3.561 2.324 2.722C2.84 1.881 3.56 1.217 4.493 0.728998C5.424 0.242998 6.437 1.86157e-06 7.532 1.86157e-06C8.692 1.86157e-06 9.779 0.273001 10.785 0.828001C11.795 1.377 12.864 2.387 13.991 3.861L11.984 5.312C11.057 4.142 10.265 3.367 9.616 2.995C8.963 2.622 8.251 2.432 7.48 2.432C6.488 2.432 5.674 2.722 5.046 3.299C4.413 3.873 4.099 4.581 4.099 5.428C4.099 5.939 4.21 6.436 4.432 6.916C4.658 7.398 5.065 7.919 5.656 8.484C5.977 8.783 7.04 9.568 8.836 10.836C10.968 12.344 12.429 13.682 13.222 14.855C14.014 16.028 14.41 17.208 14.41 18.392C14.41 20.1 13.734 21.582 12.38 22.842C11.024 24.101 9.375 24.73 7.431 24.73C5.938 24.73 4.58 24.348 3.365 23.588C2.149 22.825 1.026 21.548 9.53674e-09 19.754Z" transform="translate(3.24 53.5732)" fill="#616161"/>
<path d="M6.363 -3.96729e-07C8.24 -3.96729e-07 9.796 0.687997 11.031 2.054C12.154 3.303 12.714 4.779 12.714 6.487C12.714 8.195 12.122 9.691 10.937 10.974C9.751 12.255 8.226 12.897 6.364 12.897C4.491 12.897 2.964 12.255 1.78 10.974C0.592 9.691 -7.47681e-07 8.195 -7.47681e-07 6.487C-7.47681e-07 4.781 0.562 3.312 1.683 2.064C2.916 0.687999 4.476 -3.96729e-07 6.363 -3.96729e-07ZM6.355 1.548C5.053 1.548 3.931 2.03 2.995 2.997C2.059 3.97 1.591 5.14 1.591 6.518C1.591 7.402 1.805 8.227 2.233 8.997C2.661 9.762 3.236 10.353 3.963 10.77C4.69 11.187 5.487 11.397 6.356 11.397C7.227 11.397 8.026 11.187 8.751 10.77C9.48 10.353 10.058 9.761 10.482 8.997C10.91 8.227 11.126 7.402 11.126 6.518C11.126 5.139 10.652 3.969 9.715 2.997C8.772 2.03 7.653 1.548 6.355 1.548Z" transform="translate(16.984 62.8408)" fill="#616161"/>
<path d="M7.878 1.46484e-06C10.205 1.46484e-06 12.129 0.845999 13.659 2.539C15.051 4.086 15.742 5.91 15.742 8.02C15.742 10.143 15.008 11.998 13.537 13.583C12.073 15.167 10.187 15.96 7.878 15.96C5.563 15.96 3.673 15.167 2.203 13.583C0.730999 11.997 3.35693e-07 10.143 3.35693e-07 8.02C3.35693e-07 5.919 0.696 4.096 2.083 2.555C3.613 0.849002 5.546 1.46484e-06 7.878 1.46484e-06ZM7.873 1.912C6.258 1.912 4.867 2.508 3.71 3.711C2.552 4.912 1.968 6.361 1.968 8.064C1.968 9.163 2.235 10.186 2.763 11.135C3.295 12.086 4.008 12.821 4.911 13.332C5.805 13.85 6.796 14.105 7.873 14.105C8.95 14.105 9.937 13.849 10.838 13.332C11.739 12.82 12.453 12.086 12.981 11.135C13.506 10.186 13.774 9.162 13.774 8.064C13.774 6.362 13.191 4.913 12.029 3.711C10.86 2.508 9.477 1.912 7.873 1.912Z" transform="translate(28.298 56.5391)" fill="#616161"/>
<path d="M-5.79834e-07 6.40869e-07H1.886L6.251 10.395L10.795 6.40869e-07H11.121L15.688 10.395L20.143 6.40869e-07H22.044L15.864 14.318H15.523L10.968 4.064L6.418 14.318H6.08L-5.79834e-07 6.40869e-07Z" transform="translate(39.508 62.478)" fill="#616161"/>
<path d="M1.70898e-06 5.79834e-07H2.015V13.117L9.258 6.414H12.209L3.619 14.342L12.712 23.025H9.885L2.015 15.547V23.025H1.70898e-06V5.79834e-07Z" transform="translate(60.233 53.7422)" fill="#616161"/>
<path d="M15.717 0.391V15.574H13.807V12.965C12.99 13.963 12.078 14.708 11.07 15.212C10.054 15.717 8.948 15.966 7.745 15.966C5.605 15.966 3.784 15.187 2.271 13.626C0.757002 12.07 -1.40381e-06 10.175 -1.40381e-06 7.94C-1.40381e-06 5.753 0.769998 3.885 2.293 2.333C3.818 0.777001 5.656 1.06812e-06 7.795 1.06812e-06C9.033 1.06812e-06 10.163 0.268001 11.165 0.799001C12.165 1.326 13.047 2.122 13.808 3.184V0.391999H15.717V0.391ZM7.954 1.886C6.874 1.886 5.881 2.15 4.966 2.685C4.049 3.221 3.321 3.968 2.781 4.939C2.242 5.906 1.972 6.925 1.972 8.003C1.972 9.071 2.243 10.094 2.785 11.069C3.336 12.048 4.068 12.805 4.987 13.348C5.906 13.894 6.891 14.163 7.943 14.163C9.005 14.163 10.011 13.897 10.963 13.355C11.913 12.817 12.648 12.086 13.164 11.167C13.673 10.245 13.932 9.21 13.932 8.059C13.932 6.304 13.356 4.831 12.204 3.652C11.054 2.48 9.634 1.886 7.954 1.886Z" transform="translate(70.447 60.6299)" fill="#616161"/>
<path d="M1.047 1.276L4.475 5.589L5.305 -3.05176e-06L6.968 0.552998L5.632 9.341L5.302 9.425L1.52588e-07 2.802L1.047 1.276Z" transform="translate(27.465 70.5752)" fill="#616161"/>
<path d="M6.104 3.284C6.104 5.101 5.064 6.572 3.263 6.572C1.46 6.572 -3.05176e-08 5.101 -3.05176e-08 3.284C-3.05176e-08 1.472 1.46 -1.52588e-06 3.263 -1.52588e-06C5.064 -1.52588e-06 6.104 1.472 6.104 3.284Z" transform="translate(23.257 66.3501)" fill="#616161"/>
<path d="M7.701 4.169C7.701 6.473 6.435 8.341 4.142 8.341C1.857 8.341 -1.00708e-06 6.473 -1.00708e-06 4.169C-1.00708e-06 1.868 1.856 2.44141e-07 4.142 2.44141e-07C6.435 2.44141e-07 7.701 1.869 7.701 4.169Z" transform="translate(35.856 60.4438)" fill="#616161"/>
</svg>
