<?xml version="1.0" encoding="utf-8"?>
<!-- Generator: Adobe Illustrator 16.0.0, SVG Export Plug-In . SVG Version: 6.00 Build 0)  -->
<!DOCTYPE svg PUBLIC "-//W3C//DTD SVG 1.1//EN" "http://www.w3.org/Graphics/SVG/1.1/DTD/svg11.dtd">
<svg version="1.1" id="Layer_1" xmlns="http://www.w3.org/2000/svg" xmlns:xlink="http://www.w3.org/1999/xlink" x="0px" y="0px"
	 width="101.148px" height="42.891px" viewBox="0 0 101.148 42.891" enable-background="new 0 0 101.148 42.891"
	 xml:space="preserve">
<g>
	<polygon points="32.169,16.084 32.169,8.04 37.253,8.04 37.253,9.283 33.632,9.283 33.632,11.336 36.848,11.336 36.848,12.579 
		33.632,12.579 33.632,16.084 	"/>
	<path d="M43.15,15.771c-0.271,0.069-0.622,0.141-1.056,0.215c-0.434,0.073-0.909,0.109-1.427,0.109
		c-0.488,0-0.897-0.069-1.225-0.209c-0.329-0.138-0.592-0.333-0.79-0.58c-0.198-0.247-0.338-0.544-0.424-0.888
		c-0.085-0.344-0.127-0.721-0.127-1.131V9.886h1.405v3.18c0,0.65,0.093,1.115,0.284,1.393c0.189,0.279,0.52,0.417,0.992,0.417
		c0.171,0,0.35-0.007,0.54-0.022c0.19-0.016,0.331-0.036,0.424-0.058v-4.91h1.404V15.771z"/>
	<path d="M44.868,10.21c0.271-0.077,0.623-0.15,1.056-0.22c0.434-0.07,0.914-0.105,1.44-0.105c0.495,0,0.909,0.068,1.241,0.203
		c0.334,0.136,0.598,0.326,0.796,0.57c0.196,0.242,0.337,0.537,0.418,0.882c0.081,0.343,0.122,0.721,0.122,1.131v3.413h-1.406
		v-3.192c0-0.326-0.021-0.602-0.063-0.83c-0.042-0.229-0.112-0.414-0.209-0.558c-0.096-0.142-0.228-0.247-0.394-0.312
		c-0.167-0.066-0.37-0.1-0.61-0.1c-0.178,0-0.364,0.013-0.557,0.035c-0.193,0.023-0.336,0.043-0.429,0.059v4.898h-1.405V10.21z"/>
	<path d="M56.719,15.758c-0.278,0.086-0.63,0.164-1.05,0.232c-0.423,0.07-0.864,0.105-1.33,0.105c-0.48,0-0.909-0.073-1.288-0.221
		c-0.38-0.147-0.703-0.357-0.969-0.631c-0.267-0.276-0.473-0.608-0.616-0.999c-0.142-0.392-0.215-0.831-0.215-1.318
		c0-0.479,0.061-0.915,0.18-1.306c0.12-0.39,0.296-0.726,0.528-1.004c0.233-0.278,0.514-0.492,0.848-0.643
		c0.333-0.152,0.717-0.228,1.15-0.228c0.294,0,0.553,0.036,0.777,0.105c0.224,0.07,0.418,0.147,0.581,0.232v-1.81l1.404-0.233
		V15.758z M52.691,12.893c0,0.619,0.147,1.104,0.442,1.457c0.293,0.352,0.699,0.527,1.218,0.527c0.224,0,0.416-0.009,0.575-0.029
		c0.158-0.019,0.287-0.041,0.389-0.064v-3.481c-0.125-0.086-0.29-0.166-0.495-0.239c-0.205-0.073-0.423-0.111-0.655-0.111
		c-0.511,0-0.884,0.175-1.121,0.523C52.809,11.824,52.691,12.296,52.691,12.893"/>
	<path d="M63.416,15.771c-0.271,0.069-0.623,0.141-1.056,0.215c-0.433,0.073-0.909,0.109-1.428,0.109
		c-0.487,0-0.895-0.069-1.224-0.209c-0.329-0.138-0.592-0.333-0.79-0.58c-0.197-0.247-0.339-0.544-0.423-0.888
		c-0.085-0.344-0.128-0.721-0.128-1.131V9.886h1.405v3.18c0,0.65,0.094,1.115,0.285,1.393c0.188,0.279,0.52,0.417,0.99,0.417
		c0.172,0,0.351-0.007,0.541-0.022c0.189-0.016,0.331-0.036,0.424-0.058v-4.91h1.404V15.771z"/>
	<path d="M66.654,14.935c0.372,0,0.642-0.043,0.813-0.133c0.169-0.089,0.255-0.242,0.255-0.458c0-0.201-0.091-0.368-0.273-0.499
		c-0.182-0.133-0.482-0.275-0.9-0.431c-0.255-0.092-0.489-0.191-0.702-0.295c-0.213-0.104-0.397-0.226-0.551-0.365
		c-0.155-0.14-0.277-0.309-0.366-0.505c-0.088-0.198-0.133-0.44-0.133-0.726c0-0.557,0.205-0.996,0.615-1.317
		c0.41-0.322,0.967-0.483,1.672-0.483c0.355,0,0.696,0.033,1.021,0.099c0.326,0.067,0.568,0.131,0.732,0.192l-0.256,1.137
		c-0.155-0.07-0.352-0.133-0.593-0.19c-0.239-0.058-0.518-0.088-0.834-0.088c-0.288,0-0.52,0.049-0.697,0.145
		c-0.178,0.096-0.267,0.246-0.267,0.447c0,0.101,0.017,0.19,0.051,0.267c0.036,0.077,0.096,0.149,0.181,0.214
		c0.085,0.066,0.198,0.132,0.337,0.197c0.139,0.067,0.309,0.134,0.511,0.204c0.332,0.124,0.615,0.246,0.847,0.365
		c0.232,0.121,0.423,0.256,0.575,0.407c0.15,0.15,0.261,0.323,0.331,0.516c0.069,0.194,0.104,0.426,0.104,0.697
		c0,0.581-0.216,1.019-0.644,1.317c-0.43,0.299-1.044,0.447-1.84,0.447c-0.534,0-0.964-0.044-1.289-0.134
		c-0.325-0.09-0.554-0.16-0.684-0.214l0.243-1.172c0.209,0.085,0.459,0.166,0.749,0.243C65.952,14.896,66.282,14.935,66.654,14.935"
		/>
	<path d="M74.617,11c-0.155,0.163-0.359,0.391-0.61,0.685s-0.521,0.621-0.807,0.98c-0.287,0.361-0.574,0.736-0.864,1.126
		c-0.29,0.391-0.551,0.764-0.783,1.121h3.133v1.171h-4.828v-0.87c0.17-0.309,0.383-0.646,0.638-1.01
		c0.255-0.363,0.518-0.73,0.789-1.097c0.271-0.367,0.54-0.718,0.807-1.05c0.268-0.333,0.505-0.622,0.714-0.87h-2.798v-1.173h4.609
		V11z"/>
	<path d="M75.383,12.938c0-0.534,0.079-1.001,0.238-1.404c0.159-0.403,0.369-0.738,0.633-1.004c0.262-0.267,0.564-0.468,0.905-0.604
		c0.341-0.135,0.689-0.204,1.045-0.204c0.835,0,1.487,0.26,1.956,0.778c0.467,0.52,0.702,1.293,0.702,2.322
		c0,0.078-0.003,0.165-0.006,0.262c-0.004,0.096-0.009,0.184-0.017,0.261h-4.005c0.038,0.488,0.21,0.864,0.516,1.131
		s0.749,0.401,1.329,0.401c0.341,0,0.653-0.031,0.935-0.093c0.283-0.062,0.505-0.128,0.667-0.197l0.186,1.149
		c-0.077,0.039-0.184,0.079-0.319,0.121c-0.136,0.043-0.29,0.082-0.464,0.117c-0.175,0.034-0.363,0.064-0.563,0.087
		c-0.202,0.023-0.406,0.034-0.616,0.034c-0.534,0-0.998-0.079-1.392-0.238c-0.395-0.157-0.72-0.378-0.976-0.661
		c-0.255-0.282-0.445-0.615-0.568-0.998C75.446,13.815,75.383,13.395,75.383,12.938 M79.457,12.312c0-0.193-0.027-0.378-0.081-0.551
		c-0.055-0.175-0.134-0.325-0.238-0.453s-0.232-0.229-0.383-0.302c-0.151-0.074-0.331-0.111-0.54-0.111
		c-0.216,0-0.405,0.042-0.569,0.123c-0.162,0.082-0.3,0.188-0.411,0.318c-0.112,0.133-0.2,0.283-0.262,0.453
		s-0.104,0.345-0.127,0.523H79.457z"/>
	<polygon points="32.169,26.808 32.169,18.763 37.334,18.763 37.334,20.004 33.632,20.004 33.632,21.99 36.929,21.99 36.929,23.208 
		33.632,23.208 33.632,25.566 37.614,25.566 37.614,26.808 	"/>
	<path d="M43.614,26.494c-0.271,0.069-0.622,0.142-1.056,0.214c-0.434,0.074-0.909,0.11-1.428,0.11
		c-0.487,0-0.895-0.068-1.224-0.209c-0.33-0.139-0.592-0.332-0.79-0.579c-0.197-0.249-0.338-0.545-0.424-0.889
		c-0.085-0.344-0.127-0.721-0.127-1.132v-3.401h1.405v3.182c0,0.649,0.094,1.114,0.284,1.392c0.19,0.28,0.521,0.418,0.992,0.418
		c0.171,0,0.35-0.007,0.54-0.022c0.19-0.016,0.331-0.035,0.424-0.059v-4.91h1.404V26.494z"/>
	<path d="M48.791,22.001c-0.116-0.04-0.276-0.079-0.481-0.121c-0.206-0.043-0.444-0.064-0.714-0.064
		c-0.155,0-0.32,0.016-0.494,0.046c-0.174,0.032-0.296,0.058-0.365,0.081v4.865h-1.405v-5.782c0.271-0.101,0.61-0.195,1.017-0.284
		c0.405-0.09,0.856-0.134,1.351-0.134c0.093,0,0.201,0.006,0.325,0.018c0.124,0.012,0.247,0.026,0.372,0.046
		c0.123,0.019,0.244,0.043,0.36,0.07c0.116,0.028,0.208,0.052,0.278,0.075L48.791,22.001z"/>
	<path d="M55.429,23.616c0,0.479-0.068,0.916-0.207,1.311c-0.14,0.395-0.337,0.731-0.593,1.01c-0.255,0.278-0.563,0.495-0.923,0.65
		c-0.36,0.154-0.757,0.232-1.19,0.232c-0.433,0-0.828-0.078-1.183-0.232c-0.357-0.155-0.662-0.372-0.917-0.65
		c-0.256-0.278-0.455-0.615-0.598-1.01s-0.215-0.831-0.215-1.311c0-0.48,0.072-0.917,0.215-1.307
		c0.143-0.391,0.343-0.725,0.603-1.004c0.259-0.278,0.567-0.493,0.924-0.645c0.354-0.149,0.746-0.226,1.171-0.226
		c0.426,0,0.819,0.077,1.178,0.226c0.361,0.152,0.668,0.367,0.923,0.645c0.255,0.279,0.455,0.613,0.598,1.004
		C55.359,22.699,55.429,23.135,55.429,23.616 M53.991,23.616c0-0.604-0.13-1.082-0.389-1.435c-0.259-0.351-0.621-0.527-1.086-0.527
		c-0.463,0-0.825,0.176-1.086,0.527c-0.259,0.353-0.388,0.832-0.388,1.435c0,0.611,0.129,1.094,0.388,1.45
		c0.261,0.355,0.623,0.534,1.086,0.534c0.465,0,0.827-0.179,1.086-0.534C53.861,24.709,53.991,24.227,53.991,23.616"/>
	<path d="M62.278,23.778c0,0.464-0.06,0.89-0.18,1.276c-0.119,0.387-0.292,0.72-0.516,0.998s-0.504,0.495-0.842,0.649
		c-0.336,0.156-0.717,0.233-1.142,0.233c-0.287,0-0.55-0.035-0.79-0.105c-0.24-0.069-0.438-0.146-0.592-0.231v2.355h-1.404v-8.021
		c0.286-0.076,0.637-0.15,1.056-0.219c0.418-0.07,0.859-0.106,1.323-0.106c0.48,0,0.91,0.074,1.288,0.221
		c0.38,0.148,0.703,0.359,0.969,0.633c0.268,0.275,0.473,0.607,0.616,0.998S62.278,23.29,62.278,23.778 M60.84,23.801
		c0-0.627-0.142-1.114-0.424-1.463c-0.283-0.349-0.738-0.522-1.364-0.522c-0.133,0-0.269,0.006-0.412,0.018
		c-0.144,0.011-0.285,0.036-0.424,0.075v3.47c0.124,0.086,0.289,0.165,0.494,0.238c0.204,0.074,0.423,0.111,0.655,0.111
		c0.511,0,0.884-0.175,1.119-0.523C60.721,24.857,60.84,24.388,60.84,23.801"/>
	<path d="M63.324,23.661c0-0.532,0.079-1,0.238-1.404c0.158-0.401,0.369-0.736,0.632-1.004c0.263-0.266,0.564-0.467,0.907-0.603
		c0.339-0.136,0.688-0.202,1.044-0.202c0.835,0,1.486,0.258,1.955,0.776c0.468,0.519,0.702,1.293,0.702,2.322
		c0,0.078-0.002,0.165-0.006,0.261c-0.003,0.097-0.009,0.184-0.017,0.262h-4.004c0.039,0.487,0.21,0.864,0.516,1.131
		c0.306,0.268,0.749,0.4,1.33,0.4c0.34,0,0.651-0.03,0.933-0.093c0.283-0.062,0.506-0.127,0.668-0.197l0.186,1.149
		c-0.077,0.04-0.184,0.08-0.32,0.122c-0.134,0.043-0.289,0.08-0.463,0.115c-0.175,0.035-0.363,0.064-0.564,0.088
		c-0.202,0.023-0.406,0.034-0.615,0.034c-0.534,0-0.998-0.078-1.393-0.237s-0.718-0.38-0.975-0.661
		c-0.256-0.283-0.445-0.615-0.568-0.999C63.386,24.538,63.324,24.118,63.324,23.661 M67.397,23.034c0-0.192-0.027-0.375-0.082-0.551
		c-0.054-0.173-0.132-0.326-0.238-0.453c-0.103-0.128-0.232-0.228-0.382-0.302c-0.152-0.073-0.331-0.111-0.54-0.111
		c-0.217,0-0.406,0.041-0.569,0.123c-0.163,0.082-0.3,0.188-0.412,0.32c-0.112,0.13-0.2,0.283-0.261,0.451
		c-0.062,0.17-0.104,0.346-0.127,0.522H67.397z"/>
	<path d="M69.439,28.965c-0.1,0-0.241-0.009-0.423-0.028s-0.344-0.057-0.482-0.11l0.186-1.149c0.17,0.054,0.376,0.081,0.615,0.081
		c0.325,0,0.554-0.094,0.685-0.284c0.132-0.189,0.197-0.474,0.197-0.853v-5.885h1.406v5.908c0,0.789-0.189,1.373-0.564,1.754
		C70.684,28.777,70.145,28.965,69.439,28.965 M71.773,18.96c0,0.263-0.085,0.472-0.256,0.626c-0.17,0.155-0.37,0.232-0.603,0.232
		c-0.24,0-0.446-0.077-0.615-0.232c-0.171-0.154-0.255-0.363-0.255-0.626c0-0.271,0.084-0.484,0.255-0.639
		c0.169-0.154,0.375-0.231,0.615-0.231c0.233,0,0.433,0.077,0.603,0.231C71.688,18.477,71.773,18.689,71.773,18.96"/>
	<path d="M74.861,25.659c0.372,0,0.642-0.046,0.813-0.134c0.169-0.09,0.255-0.241,0.255-0.46c0-0.2-0.091-0.365-0.272-0.499
		c-0.183-0.131-0.483-0.274-0.9-0.429c-0.256-0.093-0.49-0.191-0.702-0.296c-0.214-0.105-0.397-0.225-0.552-0.366
		c-0.155-0.138-0.277-0.307-0.366-0.505c-0.089-0.197-0.133-0.438-0.133-0.726c0-0.556,0.204-0.995,0.615-1.316
		c0.41-0.322,0.967-0.481,1.671-0.481c0.356,0,0.696,0.032,1.022,0.098c0.325,0.065,0.569,0.128,0.731,0.192l-0.256,1.137
		c-0.155-0.07-0.351-0.134-0.592-0.192c-0.239-0.059-0.517-0.087-0.834-0.087c-0.288,0-0.519,0.049-0.698,0.145
		c-0.177,0.097-0.266,0.246-0.266,0.446c0,0.102,0.017,0.19,0.052,0.268c0.035,0.078,0.094,0.149,0.18,0.215
		c0.085,0.065,0.197,0.132,0.336,0.197c0.141,0.064,0.31,0.133,0.512,0.202c0.331,0.124,0.614,0.246,0.846,0.366
		c0.232,0.12,0.424,0.256,0.576,0.406c0.15,0.15,0.26,0.324,0.33,0.517c0.07,0.193,0.104,0.426,0.104,0.696
		c0,0.58-0.214,1.021-0.644,1.318s-1.043,0.446-1.839,0.446c-0.534,0-0.965-0.046-1.289-0.134c-0.325-0.089-0.553-0.16-0.685-0.215
		l0.244-1.173c0.209,0.086,0.458,0.168,0.748,0.244C74.159,25.619,74.489,25.659,74.861,25.659"/>
	<path d="M79.979,23.104c0.178-0.186,0.368-0.385,0.569-0.598c0.202-0.213,0.399-0.424,0.592-0.637
		c0.193-0.214,0.378-0.419,0.551-0.617c0.175-0.198,0.324-0.368,0.447-0.515h1.66c-0.386,0.432-0.795,0.881-1.224,1.346
		c-0.43,0.464-0.861,0.917-1.294,1.357c0.232,0.194,0.476,0.429,0.731,0.703c0.255,0.274,0.503,0.567,0.743,0.877
		c0.24,0.309,0.464,0.618,0.673,0.928c0.209,0.311,0.383,0.597,0.522,0.86h-1.624c-0.14-0.241-0.301-0.493-0.482-0.756
		c-0.182-0.264-0.377-0.519-0.587-0.766c-0.208-0.248-0.421-0.482-0.637-0.702c-0.217-0.222-0.43-0.408-0.64-0.563v2.787h-1.403
		v-7.813l1.403-0.233V23.104z"/>
	<path d="M86.467,18.96c0,0.263-0.085,0.472-0.254,0.626c-0.171,0.156-0.372,0.232-0.604,0.232c-0.241,0-0.446-0.076-0.615-0.232
		c-0.172-0.154-0.256-0.363-0.256-0.626c0-0.271,0.084-0.484,0.256-0.637c0.169-0.156,0.374-0.233,0.615-0.233
		c0.232,0,0.433,0.077,0.604,0.233C86.382,18.476,86.467,18.689,86.467,18.96 M86.317,26.807h-1.404v-6.071h1.404V26.807z"/>
	<path d="M87.699,23.661c0-0.532,0.079-1,0.238-1.404c0.159-0.401,0.368-0.736,0.633-1.004c0.262-0.266,0.564-0.467,0.905-0.603
		c0.34-0.136,0.689-0.202,1.045-0.202c0.835,0,1.486,0.258,1.956,0.776c0.467,0.519,0.702,1.293,0.702,2.322
		c0,0.078-0.002,0.165-0.006,0.261c-0.004,0.097-0.01,0.184-0.018,0.262h-4.004c0.039,0.487,0.21,0.864,0.516,1.131
		c0.306,0.268,0.749,0.4,1.33,0.4c0.34,0,0.651-0.03,0.933-0.093c0.284-0.062,0.506-0.127,0.667-0.197l0.187,1.149
		c-0.078,0.04-0.184,0.08-0.32,0.122c-0.134,0.043-0.289,0.08-0.463,0.115c-0.174,0.035-0.363,0.064-0.564,0.088
		c-0.202,0.023-0.406,0.034-0.615,0.034c-0.534,0-0.998-0.078-1.393-0.237c-0.394-0.159-0.719-0.38-0.975-0.661
		c-0.255-0.283-0.445-0.615-0.569-0.999C87.761,24.538,87.699,24.118,87.699,23.661 M91.772,23.034c0-0.192-0.027-0.375-0.082-0.551
		c-0.054-0.173-0.132-0.326-0.238-0.453c-0.103-0.128-0.232-0.228-0.382-0.302c-0.152-0.073-0.331-0.111-0.54-0.111
		c-0.217,0-0.406,0.041-0.569,0.123c-0.162,0.082-0.3,0.188-0.412,0.32c-0.111,0.13-0.199,0.283-0.261,0.451
		c-0.062,0.17-0.104,0.346-0.127,0.522H91.772z"/>
	<path d="M33.588,32.174c0.746,0,1.319,0.143,1.719,0.426c0.402,0.284,0.602,0.707,0.602,1.268c0,0.307-0.055,0.568-0.165,0.785
		c-0.109,0.217-0.267,0.393-0.475,0.528c-0.207,0.137-0.458,0.234-0.754,0.296c-0.297,0.06-0.631,0.092-1.005,0.092h-0.589v1.968
		h-0.743v-5.231c0.21-0.051,0.443-0.084,0.701-0.104C33.138,32.184,33.375,32.174,33.588,32.174 M33.649,32.826
		c-0.315,0-0.559,0.007-0.728,0.023v2.083h0.56c0.254,0,0.485-0.017,0.689-0.049c0.204-0.034,0.376-0.09,0.517-0.17
		c0.14-0.078,0.249-0.187,0.326-0.324c0.076-0.139,0.115-0.314,0.115-0.528c0-0.204-0.041-0.374-0.119-0.507
		c-0.079-0.132-0.187-0.238-0.322-0.317c-0.136-0.08-0.293-0.134-0.471-0.164C34.038,32.84,33.849,32.826,33.649,32.826"/>
	<path d="M38.222,33.469c0.062,0,0.132,0.004,0.211,0.012c0.079,0.008,0.157,0.019,0.234,0.03c0.076,0.013,0.146,0.026,0.21,0.04
		c0.064,0.012,0.111,0.023,0.142,0.033l-0.123,0.621c-0.055-0.021-0.149-0.046-0.279-0.073c-0.131-0.028-0.297-0.041-0.502-0.041
		c-0.133,0-0.264,0.013-0.394,0.041c-0.13,0.027-0.216,0.046-0.258,0.056v3.35h-0.711v-3.815c0.168-0.062,0.377-0.119,0.628-0.171
		C37.63,33.497,37.91,33.469,38.222,33.469"/>
	<path d="M43.187,35.454c0,0.316-0.046,0.602-0.138,0.858c-0.093,0.254-0.221,0.475-0.388,0.658
		c-0.165,0.185-0.364,0.325-0.593,0.425c-0.23,0.101-0.48,0.149-0.75,0.149c-0.272,0-0.522-0.049-0.751-0.149
		c-0.23-0.1-0.429-0.24-0.593-0.425c-0.167-0.184-0.296-0.404-0.388-0.658c-0.092-0.257-0.138-0.542-0.138-0.858
		c0-0.311,0.046-0.597,0.138-0.855c0.092-0.256,0.221-0.478,0.388-0.661c0.164-0.185,0.363-0.326,0.593-0.426
		c0.229-0.1,0.479-0.149,0.751-0.149c0.27,0,0.52,0.05,0.75,0.149c0.229,0.1,0.428,0.241,0.593,0.426
		c0.167,0.184,0.295,0.405,0.388,0.661C43.141,34.857,43.187,35.143,43.187,35.454 M42.443,35.454c0-0.449-0.101-0.806-0.303-1.069
		c-0.201-0.263-0.476-0.394-0.822-0.394c-0.348,0-0.622,0.131-0.825,0.394c-0.201,0.264-0.302,0.62-0.302,1.069
		s0.101,0.806,0.302,1.068c0.203,0.264,0.477,0.396,0.825,0.396c0.346,0,0.621-0.132,0.822-0.396
		C42.342,36.259,42.443,35.903,42.443,35.454"/>
	<path d="M46.648,37.139c-0.06,0.041-0.18,0.093-0.356,0.156c-0.176,0.064-0.381,0.097-0.616,0.097c-0.24,0-0.467-0.038-0.679-0.115
		c-0.21-0.076-0.397-0.196-0.554-0.356c-0.159-0.161-0.284-0.361-0.376-0.602c-0.093-0.239-0.138-0.525-0.138-0.858
		c0-0.291,0.044-0.557,0.13-0.8c0.087-0.243,0.213-0.451,0.38-0.628c0.165-0.176,0.369-0.314,0.608-0.414
		c0.24-0.1,0.511-0.149,0.812-0.149c0.332,0,0.622,0.025,0.869,0.072c0.248,0.049,0.456,0.094,0.624,0.135v3.555
		c0,0.612-0.157,1.057-0.474,1.333c-0.316,0.275-0.797,0.413-1.44,0.413c-0.25,0-0.486-0.021-0.708-0.063
		c-0.223-0.04-0.415-0.087-0.578-0.144l0.129-0.62c0.143,0.055,0.318,0.105,0.526,0.148c0.207,0.043,0.422,0.065,0.647,0.065
		c0.423,0,0.728-0.084,0.915-0.254c0.187-0.168,0.279-0.437,0.279-0.805V37.139z M46.641,34.181
		c-0.071-0.02-0.167-0.038-0.287-0.057c-0.12-0.018-0.283-0.025-0.487-0.025c-0.383,0-0.678,0.125-0.885,0.373
		c-0.206,0.252-0.31,0.582-0.31,0.997c0,0.23,0.029,0.427,0.088,0.589c0.059,0.163,0.138,0.3,0.237,0.406
		c0.1,0.107,0.215,0.188,0.345,0.237c0.131,0.051,0.265,0.077,0.403,0.077c0.188,0,0.362-0.027,0.521-0.08
		c0.157-0.054,0.283-0.116,0.375-0.188V34.181z"/>
	<path d="M50.011,33.469c0.061,0,0.131,0.004,0.211,0.012c0.079,0.008,0.157,0.019,0.233,0.03c0.077,0.013,0.146,0.026,0.21,0.04
		c0.065,0.012,0.112,0.023,0.142,0.033l-0.122,0.621c-0.056-0.021-0.149-0.046-0.279-0.073c-0.131-0.028-0.298-0.041-0.503-0.041
		c-0.133,0-0.264,0.013-0.393,0.041c-0.13,0.027-0.217,0.046-0.257,0.056v3.35h-0.713v-3.815c0.169-0.062,0.378-0.119,0.629-0.171
		C49.419,33.497,49.699,33.469,50.011,33.469"/>
	<path d="M52.745,33.376c0.286,0,0.527,0.038,0.724,0.112c0.197,0.075,0.355,0.179,0.475,0.313c0.12,0.136,0.206,0.298,0.257,0.483
		c0.051,0.187,0.077,0.392,0.077,0.617v2.489c-0.062,0.01-0.147,0.023-0.257,0.042c-0.11,0.018-0.234,0.034-0.371,0.05
		c-0.138,0.015-0.288,0.028-0.448,0.041c-0.162,0.013-0.321,0.02-0.48,0.02c-0.225,0-0.431-0.022-0.62-0.068
		c-0.189-0.045-0.352-0.119-0.49-0.219s-0.245-0.23-0.322-0.395c-0.076-0.163-0.115-0.359-0.115-0.589
		c0-0.22,0.045-0.41,0.135-0.567c0.088-0.158,0.21-0.287,0.363-0.383c0.153-0.098,0.332-0.169,0.536-0.215
		c0.205-0.046,0.418-0.069,0.643-0.069c0.072,0,0.146,0.005,0.222,0.012c0.078,0.008,0.15,0.019,0.218,0.03
		c0.07,0.014,0.13,0.025,0.182,0.034c0.05,0.011,0.086,0.019,0.106,0.023V34.94c0-0.117-0.013-0.234-0.038-0.348
		c-0.025-0.114-0.072-0.218-0.138-0.307c-0.066-0.09-0.157-0.161-0.272-0.214c-0.115-0.055-0.263-0.081-0.448-0.081
		c-0.234,0-0.439,0.017-0.617,0.049c-0.176,0.033-0.306,0.068-0.394,0.104l-0.084-0.59c0.092-0.041,0.244-0.081,0.459-0.118
		C52.263,33.397,52.495,33.376,52.745,33.376 M52.807,36.948c0.168,0,0.318-0.004,0.448-0.011c0.13-0.01,0.239-0.023,0.325-0.043
		v-1.188c-0.051-0.025-0.133-0.049-0.249-0.064c-0.114-0.02-0.254-0.028-0.417-0.028c-0.107,0-0.221,0.008-0.341,0.024
		c-0.12,0.014-0.229,0.047-0.328,0.096c-0.101,0.048-0.184,0.114-0.25,0.198c-0.067,0.085-0.099,0.196-0.099,0.334
		c0,0.255,0.081,0.432,0.244,0.531C52.304,36.898,52.526,36.948,52.807,36.948"/>
	<path d="M55.418,33.668c0.164-0.041,0.38-0.084,0.648-0.129c0.268-0.047,0.578-0.07,0.93-0.07c0.255,0,0.47,0.034,0.644,0.104
		c0.173,0.067,0.319,0.169,0.436,0.302c0.036-0.025,0.092-0.062,0.168-0.106c0.077-0.047,0.173-0.091,0.285-0.136
		c0.111-0.043,0.236-0.081,0.374-0.114c0.139-0.032,0.286-0.05,0.445-0.05c0.307,0,0.556,0.045,0.751,0.134
		c0.194,0.091,0.345,0.218,0.456,0.381c0.11,0.161,0.183,0.355,0.221,0.582c0.039,0.225,0.059,0.469,0.059,0.734v2.236h-0.713
		v-2.083c0-0.235-0.012-0.436-0.035-0.606c-0.023-0.168-0.067-0.307-0.13-0.42c-0.063-0.111-0.151-0.194-0.261-0.25
		c-0.11-0.053-0.252-0.079-0.425-0.079c-0.24,0-0.437,0.032-0.593,0.096c-0.157,0.063-0.261,0.122-0.319,0.172
		c0.042,0.133,0.072,0.278,0.093,0.437c0.02,0.158,0.03,0.324,0.03,0.498v2.236h-0.712v-2.083c0-0.235-0.013-0.436-0.038-0.606
		c-0.026-0.168-0.07-0.307-0.134-0.42c-0.064-0.111-0.152-0.194-0.261-0.25c-0.11-0.053-0.249-0.079-0.416-0.079
		c-0.073,0-0.15,0.002-0.231,0.007c-0.082,0.006-0.16,0.013-0.233,0.02c-0.075,0.007-0.143,0.016-0.204,0.026
		s-0.102,0.019-0.122,0.023v3.362h-0.713V33.668z"/>
	<path d="M66.35,35.316c0.082,0.102,0.184,0.236,0.31,0.401c0.125,0.166,0.254,0.351,0.386,0.552
		c0.134,0.202,0.264,0.413,0.395,0.633c0.131,0.22,0.242,0.431,0.334,0.635h-0.813c-0.102-0.194-0.213-0.389-0.332-0.589
		c-0.121-0.199-0.242-0.39-0.364-0.571c-0.123-0.181-0.245-0.352-0.364-0.51c-0.12-0.157-0.229-0.295-0.325-0.413
		c-0.068,0.004-0.135,0.007-0.205,0.007h-0.21h-0.666v2.076h-0.742v-5.231c0.208-0.051,0.441-0.084,0.7-0.104
		c0.257-0.018,0.494-0.027,0.708-0.027c0.746,0,1.314,0.142,1.704,0.422c0.392,0.281,0.586,0.699,0.586,1.257
		c0,0.354-0.092,0.653-0.279,0.903C66.987,35.006,66.712,35.193,66.35,35.316 M65.224,32.826c-0.317,0-0.56,0.007-0.728,0.023v1.999
		h0.528c0.256,0,0.485-0.013,0.689-0.038c0.205-0.025,0.378-0.074,0.518-0.146c0.141-0.071,0.249-0.172,0.325-0.302
		c0.077-0.13,0.116-0.304,0.116-0.518c0-0.2-0.039-0.365-0.116-0.498c-0.076-0.133-0.18-0.237-0.31-0.314
		c-0.13-0.077-0.284-0.13-0.46-0.16C65.61,32.84,65.423,32.826,65.224,32.826"/>
	<path d="M68.265,35.46c0-0.352,0.051-0.659,0.153-0.923c0.103-0.262,0.237-0.481,0.406-0.653c0.169-0.175,0.363-0.305,0.583-0.392
		c0.219-0.087,0.444-0.131,0.674-0.131c0.536,0,0.946,0.167,1.233,0.502c0.286,0.334,0.429,0.844,0.429,1.528v0.118
		c0,0.05-0.003,0.094-0.008,0.135h-2.727c0.031,0.413,0.151,0.728,0.361,0.942c0.209,0.215,0.536,0.321,0.979,0.321
		c0.251,0,0.461-0.021,0.633-0.065c0.17-0.042,0.299-0.085,0.386-0.126l0.1,0.599c-0.087,0.045-0.239,0.093-0.457,0.144
		c-0.217,0.052-0.463,0.076-0.738,0.076c-0.347,0-0.647-0.051-0.899-0.155c-0.254-0.104-0.462-0.249-0.625-0.433
		c-0.164-0.185-0.286-0.403-0.364-0.656C68.305,36.039,68.265,35.761,68.265,35.46 M71,35.071c0.004-0.322-0.076-0.586-0.242-0.793
		s-0.394-0.311-0.685-0.311c-0.164,0-0.308,0.032-0.433,0.096s-0.231,0.147-0.318,0.249c-0.087,0.102-0.154,0.219-0.203,0.352
		c-0.049,0.134-0.08,0.269-0.096,0.407H71z"/>
	<path d="M75.228,37.139c-0.062,0.041-0.18,0.093-0.356,0.156c-0.176,0.064-0.382,0.097-0.617,0.097
		c-0.241,0-0.466-0.038-0.679-0.115c-0.211-0.076-0.397-0.196-0.554-0.356c-0.158-0.161-0.283-0.361-0.375-0.602
		c-0.093-0.239-0.138-0.525-0.138-0.858c0-0.291,0.043-0.557,0.129-0.8c0.087-0.243,0.214-0.451,0.38-0.628
		c0.165-0.176,0.369-0.314,0.609-0.414c0.24-0.1,0.51-0.149,0.812-0.149c0.332,0,0.621,0.025,0.868,0.072
		c0.249,0.049,0.456,0.094,0.625,0.135v3.555c0,0.612-0.157,1.057-0.474,1.333c-0.317,0.275-0.798,0.413-1.441,0.413
		c-0.249,0-0.485-0.021-0.708-0.063c-0.222-0.04-0.415-0.087-0.579-0.144l0.131-0.62c0.143,0.055,0.317,0.105,0.525,0.148
		c0.206,0.043,0.422,0.065,0.647,0.065c0.424,0,0.729-0.084,0.915-0.254c0.186-0.168,0.28-0.437,0.28-0.805V37.139z M75.22,34.181
		c-0.071-0.02-0.168-0.038-0.288-0.057c-0.12-0.018-0.281-0.025-0.485-0.025c-0.383,0-0.678,0.125-0.885,0.373
		c-0.207,0.252-0.31,0.582-0.31,0.997c0,0.23,0.029,0.427,0.087,0.589c0.058,0.163,0.138,0.3,0.237,0.406
		c0.101,0.107,0.216,0.188,0.346,0.237c0.13,0.051,0.263,0.077,0.402,0.077c0.188,0,0.363-0.027,0.521-0.08
		c0.158-0.054,0.283-0.116,0.375-0.188V34.181z"/>
	<path d="M77.473,32.833c-0.128,0-0.236-0.041-0.326-0.126c-0.089-0.084-0.134-0.198-0.134-0.34c0-0.144,0.045-0.258,0.134-0.343
		c0.09-0.084,0.198-0.126,0.326-0.126c0.127,0,0.236,0.042,0.325,0.126c0.089,0.085,0.135,0.199,0.135,0.343
		c0,0.142-0.046,0.256-0.135,0.34C77.708,32.792,77.6,32.833,77.473,32.833 M77.833,37.538h-0.712v-3.983h0.712V37.538z"/>
	<path d="M82.535,35.454c0,0.316-0.046,0.602-0.138,0.858c-0.091,0.254-0.221,0.475-0.387,0.658
		c-0.165,0.185-0.364,0.325-0.593,0.425c-0.23,0.101-0.48,0.149-0.751,0.149c-0.27,0-0.52-0.049-0.751-0.149
		c-0.229-0.1-0.427-0.24-0.594-0.425c-0.165-0.184-0.294-0.404-0.386-0.658c-0.091-0.257-0.138-0.542-0.138-0.858
		c0-0.311,0.047-0.597,0.138-0.855c0.092-0.256,0.221-0.478,0.386-0.661c0.167-0.185,0.365-0.326,0.594-0.426
		c0.231-0.1,0.481-0.149,0.751-0.149c0.271,0,0.521,0.05,0.751,0.149c0.229,0.1,0.428,0.241,0.593,0.426
		c0.166,0.184,0.296,0.405,0.387,0.661C82.489,34.857,82.535,35.143,82.535,35.454 M81.792,35.454c0-0.449-0.101-0.806-0.303-1.069
		c-0.201-0.263-0.476-0.394-0.823-0.394c-0.348,0-0.622,0.131-0.824,0.394c-0.201,0.264-0.302,0.62-0.302,1.069
		s0.101,0.806,0.302,1.068c0.202,0.264,0.476,0.396,0.824,0.396c0.347,0,0.622-0.132,0.823-0.396
		C81.691,36.259,81.792,35.903,81.792,35.454"/>
	<path d="M83.5,33.668c0.164-0.041,0.381-0.084,0.651-0.129c0.271-0.047,0.582-0.07,0.935-0.07c0.316,0,0.58,0.045,0.789,0.134
		c0.209,0.091,0.376,0.215,0.502,0.376c0.125,0.161,0.213,0.354,0.264,0.578c0.051,0.226,0.077,0.473,0.077,0.743v2.236h-0.712
		v-2.083c0-0.246-0.017-0.454-0.051-0.628c-0.033-0.173-0.088-0.314-0.164-0.422c-0.077-0.107-0.179-0.184-0.307-0.233
		c-0.128-0.049-0.285-0.072-0.475-0.072c-0.077,0-0.155,0.002-0.238,0.007c-0.081,0.006-0.159,0.013-0.233,0.02
		s-0.141,0.016-0.199,0.026c-0.059,0.011-0.101,0.019-0.126,0.023v3.362H83.5V33.668z"/>
	<path d="M89.146,33.376c0.286,0,0.526,0.038,0.723,0.112c0.196,0.075,0.355,0.179,0.475,0.313c0.12,0.136,0.205,0.298,0.257,0.483
		c0.05,0.187,0.076,0.392,0.076,0.617v2.489c-0.061,0.01-0.146,0.023-0.257,0.042c-0.109,0.018-0.233,0.034-0.37,0.05
		c-0.139,0.015-0.288,0.028-0.449,0.041s-0.32,0.02-0.478,0.02c-0.226,0-0.432-0.022-0.621-0.068
		c-0.19-0.045-0.353-0.119-0.49-0.219c-0.138-0.1-0.246-0.23-0.322-0.395c-0.077-0.163-0.115-0.359-0.115-0.589
		c0-0.22,0.045-0.41,0.134-0.567c0.09-0.158,0.211-0.287,0.365-0.383c0.152-0.098,0.331-0.169,0.536-0.215
		c0.203-0.046,0.418-0.069,0.642-0.069c0.072,0,0.147,0.005,0.222,0.012c0.077,0.008,0.15,0.019,0.219,0.03
		c0.069,0.014,0.129,0.025,0.18,0.034c0.051,0.011,0.087,0.019,0.107,0.023V34.94c0-0.117-0.013-0.234-0.038-0.348
		c-0.025-0.114-0.072-0.218-0.137-0.307c-0.067-0.09-0.158-0.161-0.273-0.214c-0.115-0.055-0.264-0.081-0.448-0.081
		c-0.235,0-0.44,0.017-0.616,0.049c-0.178,0.033-0.308,0.068-0.394,0.104l-0.086-0.59c0.093-0.041,0.245-0.081,0.46-0.118
		C88.664,33.397,88.896,33.376,89.146,33.376 M89.208,36.948c0.168,0,0.318-0.004,0.448-0.011c0.129-0.01,0.238-0.023,0.325-0.043
		v-1.188c-0.05-0.025-0.134-0.049-0.249-0.064c-0.115-0.02-0.253-0.028-0.418-0.028c-0.106,0-0.221,0.008-0.34,0.024
		c-0.12,0.014-0.229,0.047-0.329,0.096c-0.1,0.048-0.183,0.114-0.249,0.198c-0.067,0.085-0.1,0.196-0.1,0.334
		c0,0.255,0.082,0.432,0.245,0.531C88.704,36.898,88.927,36.948,89.208,36.948"/>
	<path d="M93.014,37.538c-0.439-0.011-0.751-0.105-0.935-0.284c-0.183-0.18-0.275-0.457-0.275-0.834v-4.78l0.712-0.123v4.788
		c0,0.117,0.011,0.214,0.031,0.291c0.02,0.076,0.053,0.138,0.099,0.183c0.046,0.046,0.108,0.081,0.184,0.104
		c0.077,0.022,0.171,0.042,0.284,0.057L93.014,37.538z"/>
	<path d="M93.872,33.668c0.163-0.041,0.38-0.084,0.651-0.129c0.271-0.047,0.582-0.07,0.934-0.07c0.317,0,0.58,0.045,0.79,0.134
		c0.208,0.091,0.375,0.215,0.501,0.376s0.213,0.354,0.265,0.578c0.051,0.226,0.076,0.473,0.076,0.743v2.236h-0.712v-2.083
		c0-0.246-0.017-0.454-0.05-0.628c-0.033-0.173-0.088-0.314-0.165-0.422c-0.076-0.107-0.178-0.184-0.306-0.233
		c-0.128-0.049-0.286-0.072-0.476-0.072c-0.075,0-0.154,0.002-0.237,0.007c-0.081,0.006-0.159,0.013-0.233,0.02
		c-0.075,0.007-0.141,0.016-0.2,0.026c-0.059,0.011-0.1,0.019-0.126,0.023v3.362h-0.712V33.668z"/>
	<path d="M97.625,38.28c0.057,0.025,0.128,0.05,0.218,0.072c0.089,0.024,0.178,0.035,0.264,0.035c0.282,0,0.501-0.062,0.659-0.188
		c0.159-0.127,0.301-0.328,0.429-0.608c-0.322-0.614-0.622-1.264-0.9-1.95c-0.278-0.687-0.509-1.383-0.693-2.087h0.766
		c0.055,0.229,0.124,0.479,0.203,0.743c0.078,0.266,0.166,0.539,0.264,0.819c0.097,0.28,0.202,0.562,0.314,0.842
		c0.112,0.281,0.23,0.553,0.352,0.813c0.195-0.536,0.363-1.067,0.506-1.594c0.143-0.525,0.279-1.066,0.406-1.623h0.735
		c-0.184,0.75-0.388,1.472-0.612,2.163c-0.225,0.692-0.468,1.34-0.728,1.942c-0.103,0.229-0.208,0.428-0.317,0.595
		c-0.111,0.164-0.232,0.302-0.365,0.408c-0.133,0.107-0.283,0.186-0.447,0.237c-0.167,0.052-0.355,0.077-0.564,0.077
		c-0.057,0-0.115-0.004-0.176-0.011c-0.062-0.008-0.122-0.02-0.181-0.031c-0.058-0.012-0.112-0.026-0.16-0.043
		c-0.048-0.015-0.083-0.028-0.103-0.038L97.625,38.28z"/>
	<path d="M19.431,17.347c0.548-0.107,1.276-0.475,2.017-0.943V0L0,6.703l0.003,16.083c1.08,0.294,2.282,0.433,3.074-0.046
		c1.732-1.034,4.356-4.197,4.356-4.197s-1.383,3.411-0.862,4.665c0.552,1.329,3.83,1.401,3.83,1.401s-3.706,2.253-5.431,3.746
		c-1.773,1.523-3.005,7.123-3.005,7.123s-0.859-3.588-1.962-4.34v-0.002H0v7.732l21.448,4.021V24.283
		c-0.486,0.139-0.943,0.283-1.308,0.438c-1.875,0.769-3.943,6.411-3.943,6.411s-0.111-4.7-0.949-6.051
		c-0.79-1.258-4.847-0.473-4.847-0.473s3.67-2.353,4.812-4.232c1.084-1.782,0.65-4.677,0.65-4.677S17.708,17.679,19.431,17.347
		 M12.071,15.107c-1.34,0.255-4.638,3.437-4.638,3.437s2.073-3.249,1.948-4.403c-0.123-1.098-2.273-1.494-2.273-1.494
		s2.815-0.691,4.042-1.795c1.185-1.066,2.22-3.279,2.22-3.279s0.261,1.831,1.315,2.093c1.086,0.274,3.989-0.899,3.989-0.899
		s-2.291,2.169-3.191,3.352c-0.939,1.233,0.38,3.581,0.38,3.581S13.431,14.853,12.071,15.107"/>
</g>
</svg>
