<?xml version="1.0" encoding="utf-8"?>
<!-- Generator: Adobe Illustrator 16.0.0, SVG Export Plug-In . SVG Version: 6.00 Build 0)  -->
<!DOCTYPE svg PUBLIC "-//W3C//DTD SVG 1.1//EN" "http://www.w3.org/Graphics/SVG/1.1/DTD/svg11.dtd">
<svg version="1.1" id="Layer_1" xmlns="http://www.w3.org/2000/svg" xmlns:xlink="http://www.w3.org/1999/xlink" x="0px" y="0px"
	 width="86.918px" height="21.301px" viewBox="0 0 86.918 21.301" enable-background="new 0 0 86.918 21.301" xml:space="preserve">
<g>
	<path d="M84.254,14.746c0,0.384,0.129,0.713,0.385,0.98c0.259,0.27,0.572,0.402,0.945,0.402c0.375,0,0.691-0.133,0.949-0.402
		c0.256-0.268,0.385-0.597,0.385-0.98c0-0.188-0.036-0.366-0.106-0.536c-0.07-0.168-0.165-0.315-0.287-0.437
		c-0.123-0.123-0.265-0.223-0.422-0.299s-0.33-0.114-0.519-0.114c-0.185,0-0.357,0.038-0.515,0.114
		c-0.159,0.076-0.298,0.176-0.42,0.299c-0.123,0.121-0.221,0.269-0.29,0.437C84.289,14.379,84.254,14.557,84.254,14.746
		 M80.942,10.626h-3.838c0.047-0.63,0.255-1.143,0.621-1.533c0.368-0.391,0.826-0.588,1.376-0.588c0.596,0,1.053,0.199,1.366,0.597
		c0.316,0.398,0.475,0.894,0.475,1.488V10.626z M82.344,15.691l-0.369-1.596c-0.385,0.106-0.766,0.194-1.147,0.264
		c-0.378,0.07-0.832,0.104-1.356,0.104c-0.679,0-1.245-0.217-1.699-0.655c-0.456-0.438-0.685-1.055-0.685-1.849h5.66v-0.491
		c0-1.448-0.295-2.552-0.885-3.312c-0.591-0.759-1.51-1.138-2.761-1.138c-0.606,0-1.156,0.102-1.646,0.306
		c-0.492,0.205-0.913,0.5-1.263,0.885c-0.351,0.386-0.622,0.858-0.815,1.42c-0.192,0.56-0.289,1.197-0.289,1.91
		c0,1.459,0.369,2.588,1.104,3.381c0.735,0.795,1.846,1.193,3.329,1.193c0.597,0,1.107-0.04,1.533-0.115
		C81.482,15.92,81.911,15.819,82.344,15.691 M70.919,4.652c0,0.337,0.129,0.625,0.386,0.866c0.257,0.24,0.566,0.359,0.929,0.359
		c0.374,0,0.685-0.119,0.936-0.359c0.252-0.241,0.378-0.529,0.378-0.866c0-0.34-0.126-0.63-0.378-0.868
		c-0.251-0.242-0.563-0.359-0.936-0.359c-0.363,0-0.672,0.117-0.929,0.359C71.048,4.022,70.919,4.313,70.919,4.652 M71.164,15.936
		h2.139V7.208h-2.139V15.936z M62.105,3.318v12.618h2.139v-2.452l1.225-1.648h0.034c0.048,0.117,0.163,0.354,0.343,0.71l0.569,1.13
		l1.209,2.261h2.314l-3.173-5.587l2.595-3.14h-2.454l-1.349,1.719l-0.42,0.56l-0.387,0.527c-0.116,0.163-0.212,0.305-0.289,0.428
		l-0.167,0.271h-0.05V3.318H62.105z M54.342,13.869l-0.438,1.735c1.039,0.339,2.039,0.509,2.996,0.509
		c1.111,0,1.96-0.26,2.549-0.772c0.589-0.514,0.885-1.204,0.885-2.067c0-0.469-0.081-0.856-0.244-1.165
		c-0.163-0.311-0.368-0.567-0.613-0.771c-0.246-0.204-0.514-0.362-0.807-0.472c-0.291-0.112-0.566-0.202-0.822-0.274l-0.624-0.183
		c-0.18-0.053-0.335-0.117-0.463-0.193c-0.13-0.076-0.228-0.168-0.299-0.28c-0.07-0.111-0.105-0.255-0.105-0.429
		c0-0.246,0.108-0.456,0.325-0.631c0.215-0.175,0.534-0.263,0.955-0.263c0.268,0,0.545,0.033,0.833,0.097
		c0.284,0.064,0.569,0.143,0.848,0.236l0.492-1.559c-0.375-0.118-0.775-0.208-1.202-0.272c-0.426-0.064-0.826-0.096-1.2-0.096
		c-0.467,0-0.89,0.06-1.27,0.183c-0.38,0.123-0.707,0.294-0.982,0.517c-0.274,0.223-0.487,0.488-0.638,0.798
		c-0.154,0.31-0.228,0.651-0.228,1.025c0,0.432,0.072,0.792,0.218,1.077c0.145,0.287,0.343,0.526,0.588,0.719
		c0.245,0.193,0.528,0.35,0.849,0.473c0.322,0.123,0.657,0.236,1.008,0.342c0.187,0.058,0.363,0.116,0.526,0.176
		c0.163,0.057,0.307,0.13,0.428,0.218c0.123,0.088,0.223,0.196,0.299,0.324s0.113,0.287,0.113,0.474c0,0.351-0.155,0.609-0.464,0.78
		c-0.31,0.169-0.662,0.253-1.061,0.253c-0.268,0-0.611-0.039-1.032-0.115C55.341,14.186,54.868,14.056,54.342,13.869 M50.137,12.063
		v1.84c-0.246,0.129-0.448,0.239-0.604,0.333c-0.158,0.093-0.298,0.169-0.422,0.226c-0.123,0.061-0.235,0.105-0.342,0.132
		c-0.105,0.03-0.227,0.045-0.367,0.045c-0.445,0-0.766-0.132-0.964-0.394c-0.199-0.263-0.298-0.599-0.298-1.008
		c0-0.502,0.115-0.858,0.342-1.069c0.227-0.21,0.528-0.316,0.902-0.316c0.211,0,0.472,0.029,0.789,0.088
		C49.488,11.999,49.808,12.041,50.137,12.063 M51.749,19.598l-0.246-1.033c-0.081,0.022-0.166,0.041-0.253,0.053
		c-0.09,0.011-0.173,0.017-0.255,0.017c-0.175,0-0.316-0.075-0.419-0.227c-0.106-0.152-0.16-0.329-0.16-0.527
		c0-0.291,0.138-0.612,0.412-0.963c0.276-0.35,0.635-0.678,1.078-0.981h0.544c-0.06-0.233-0.103-0.484-0.133-0.754
		c-0.027-0.268-0.044-0.531-0.044-0.788v-4.312c0-0.993-0.266-1.748-0.796-2.269c-0.532-0.519-1.404-0.779-2.621-0.779
		c-0.572,0-1.103,0.058-1.593,0.174c-0.49,0.118-1.034,0.275-1.629,0.474l0.454,1.63c0.27-0.081,0.51-0.157,0.719-0.228
		c0.21-0.07,0.412-0.128,0.605-0.175c0.192-0.047,0.383-0.082,0.569-0.104c0.187-0.025,0.392-0.036,0.614-0.036
		c0.513,0,0.9,0.093,1.157,0.28c0.256,0.188,0.385,0.549,0.385,1.087v0.736c-0.456-0.023-0.876-0.082-1.261-0.176
		c-0.387-0.093-0.784-0.14-1.193-0.14c-0.758,0-1.38,0.234-1.866,0.701c-0.485,0.467-0.728,1.186-0.728,2.155
		c0,0.444,0.068,0.837,0.202,1.175c0.135,0.338,0.321,0.621,0.562,0.849c0.239,0.229,0.518,0.4,0.839,0.519
		c0.323,0.116,0.67,0.174,1.045,0.174c0.232,0,0.439-0.021,0.621-0.061c0.182-0.041,0.365-0.106,0.552-0.192
		c0.187-0.089,0.385-0.199,0.596-0.334l0.736-0.464h0.034l0.211,0.842c-0.235,0.128-0.459,0.277-0.674,0.445
		c-0.218,0.17-0.404,0.354-0.561,0.553c-0.158,0.199-0.284,0.406-0.376,0.622c-0.095,0.216-0.141,0.43-0.141,0.64
		c0,0.548,0.183,0.955,0.551,1.219c0.369,0.262,0.833,0.393,1.393,0.393c0.154,0,0.328-0.018,0.527-0.052
		C51.403,19.704,51.585,19.658,51.749,19.598 M43.864,15.884l-0.333-1.612c-0.072,0.022-0.136,0.04-0.192,0.053
		c-0.059,0.011-0.136,0.018-0.229,0.018c-0.293,0-0.439-0.264-0.439-0.789V3.318h-2.137v10.795c0,0.632,0.184,1.121,0.552,1.472
		c0.367,0.351,0.872,0.527,1.515,0.527c0.199,0,0.41-0.025,0.63-0.072C43.455,15.996,43.665,15.943,43.864,15.884 M36.03,0.831
		l-2.259,2.068h1.698l3.05-2.068H36.03z M31.229,13.5l-0.579,1.84c0.714,0.234,1.389,0.421,2.025,0.562
		c0.637,0.139,1.258,0.211,1.867,0.211c0.722,0,1.357-0.095,1.9-0.282c0.544-0.188,0.993-0.45,1.35-0.788
		c0.355-0.339,0.622-0.737,0.797-1.191c0.175-0.456,0.262-0.959,0.262-1.508c0-0.571-0.096-1.057-0.289-1.454
		c-0.192-0.397-0.452-0.736-0.779-1.017c-0.327-0.28-0.699-0.507-1.112-0.683c-0.416-0.175-0.852-0.333-1.307-0.473
		c-0.292-0.082-0.563-0.167-0.814-0.254c-0.252-0.087-0.469-0.191-0.657-0.307c-0.187-0.116-0.334-0.257-0.44-0.42
		c-0.104-0.165-0.155-0.367-0.155-0.613c0-0.42,0.154-0.76,0.463-1.017c0.311-0.257,0.761-0.386,1.359-0.386
		c0.315,0,0.674,0.041,1.076,0.123c0.404,0.082,0.827,0.188,1.271,0.316l0.595-1.805c-0.49-0.14-0.966-0.26-1.427-0.359
		c-0.461-0.099-0.955-0.149-1.481-0.149c-0.632,0-1.203,0.081-1.716,0.245c-0.515,0.163-0.951,0.392-1.306,0.683
		c-0.357,0.293-0.631,0.643-0.823,1.052c-0.194,0.409-0.29,0.864-0.29,1.366c0,0.585,0.104,1.075,0.315,1.473
		c0.21,0.398,0.485,0.726,0.825,0.99c0.338,0.263,0.725,0.478,1.165,0.648c0.437,0.169,0.878,0.32,1.323,0.447
		c0.653,0.2,1.134,0.427,1.445,0.684c0.309,0.257,0.465,0.624,0.465,1.103c0,0.549-0.19,0.97-0.569,1.262
		c-0.382,0.292-0.863,0.438-1.446,0.438c-0.561,0-1.113-0.072-1.658-0.22C32.341,13.873,31.79,13.7,31.229,13.5"/>
	<path d="M22.362,7.989c-4.859,1.093-6.531,4.113-8.425,6.762c-1.371,1.861-3.016,3.409-5.951,4.42v2.131
		c4.849-1.097,6.695-3.907,8.587-6.555c1.372-1.864,2.844-3.621,5.789-4.629V7.989z"/>
	<path d="M19.696,5.323c-4.858,1.094-6.53,4.112-8.424,6.762c-1.371,1.862-3.016,3.41-5.952,4.42v2.129
		c4.849-1.095,6.696-3.906,8.588-6.553c1.372-1.864,2.844-3.62,5.788-4.629V5.323z"/>
	<path d="M17.039,2.666c-4.859,1.093-6.531,4.112-8.425,6.762c-1.37,1.861-3.015,3.409-5.951,4.42v2.13
		c4.848-1.095,6.696-3.907,8.587-6.554c1.372-1.864,2.844-3.62,5.789-4.629V2.666z"/>
	<path d="M14.377,0c-4.86,1.094-6.532,4.112-8.425,6.762C4.582,8.623,2.937,10.171,0,11.182v2.13
		c4.85-1.095,6.697-3.907,8.588-6.554c1.372-1.863,2.844-3.62,5.789-4.629V0z"/>
</g>
</svg>
