<?xml version="1.0" encoding="utf-8"?>
<!-- Generator: Adobe Illustrator 16.0.0, SVG Export Plug-In . SVG Version: 6.00 Build 0)  -->
<!DOCTYPE svg PUBLIC "-//W3C//DTD SVG 1.1//EN" "http://www.w3.org/Graphics/SVG/1.1/DTD/svg11.dtd">
<svg version="1.1" id="Layer_1" xmlns="http://www.w3.org/2000/svg" xmlns:xlink="http://www.w3.org/1999/xlink" x="0px" y="0px"
	 width="157.738px" height="31.677px" viewBox="0 0 157.738 31.677" enable-background="new 0 0 157.738 31.677"
	 xml:space="preserve">
<g>
	<path d="M156.472,30.41h-44.982V1.267h44.982V30.41z M157.738,0h-47.516v31.677h47.516V0z"/>
	<polygon points="132.967,6.905 133.973,6.172 134.975,6.905 134.591,5.721 135.611,4.989 134.355,4.989 133.973,3.792 
		133.59,4.989 132.33,4.989 133.348,5.721 	"/>
	<polygon points="127.778,8.296 128.783,7.564 129.784,8.296 129.403,7.113 130.421,6.38 129.166,6.38 128.78,5.182 128.398,6.384 
		127.146,6.38 128.161,7.113 	"/>
	<polygon points="124.983,8.989 124.601,10.189 123.345,10.187 124.362,10.919 123.981,12.102 124.983,11.372 125.988,12.102 
		125.605,10.919 126.626,10.187 125.37,10.187 	"/>
	<polygon points="123.594,16.548 124.592,17.283 124.213,16.102 125.233,15.369 123.978,15.369 123.594,14.168 123.205,15.371 
		121.951,15.369 122.968,16.102 122.589,17.283 	"/>
	<polygon points="125.37,20.566 124.983,19.368 124.601,20.566 123.346,20.566 124.361,21.301 123.981,22.48 124.983,21.748 
		125.988,22.48 125.605,21.301 126.625,20.566 	"/>
	<polygon points="129.171,24.37 128.788,23.172 128.402,24.372 127.147,24.37 128.167,25.102 127.786,26.284 128.788,25.552 
		129.793,26.284 129.41,25.102 130.432,24.37 	"/>
	<polygon points="134.354,25.747 133.972,24.547 133.589,25.747 132.331,25.747 133.35,26.478 132.967,27.662 133.972,26.931 
		134.977,27.662 134.59,26.478 135.613,25.747 	"/>
	<polygon points="139.538,24.37 139.152,23.172 138.766,24.372 137.516,24.37 138.53,25.102 138.15,26.284 139.152,25.552 
		140.157,26.284 139.774,25.102 140.797,24.37 	"/>
	<polygon points="143.344,20.566 142.957,19.368 142.574,20.566 141.32,20.566 142.338,21.301 141.952,22.48 142.957,21.748 
		143.962,22.48 143.578,21.301 144.6,20.566 	"/>
	<polygon points="145.975,15.354 144.718,15.354 144.338,14.153 143.95,15.354 142.698,15.354 143.716,16.087 143.33,17.269 
		144.338,16.537 145.339,17.269 144.957,16.087 	"/>
	<polygon points="141.953,12.084 142.958,11.355 143.963,12.084 143.58,10.901 144.599,10.173 143.344,10.173 142.958,8.971 
		142.575,10.176 141.321,10.173 142.34,10.901 	"/>
	<polygon points="139.167,5.181 138.788,6.385 137.528,6.381 138.548,7.114 138.168,8.299 139.173,7.563 140.172,8.299 
		139.792,7.114 140.809,6.381 139.553,6.381 	"/>
	<polygon points="0,25.241 0,20.014 3.191,20.014 3.191,20.642 0.732,20.642 0.732,22.194 2.919,22.194 2.919,22.806 0.732,22.806 
		0.732,24.616 3.38,24.616 3.38,25.241 	"/>
	<path d="M7.204,25.047c-0.16,0.039-0.374,0.083-0.638,0.127c-0.263,0.045-0.568,0.067-0.916,0.067
		c-0.301,0-0.556-0.043-0.762-0.132c-0.206-0.087-0.372-0.211-0.498-0.373c-0.125-0.161-0.216-0.351-0.271-0.569
		s-0.083-0.462-0.083-0.728v-2.203h0.701v2.052c0,0.479,0.075,0.82,0.228,1.026c0.15,0.206,0.403,0.308,0.761,0.308
		c0.076,0,0.154-0.001,0.233-0.007c0.082-0.005,0.156-0.011,0.228-0.018c0.07-0.008,0.134-0.017,0.192-0.022
		c0.058-0.009,0.099-0.018,0.124-0.026v-3.313h0.701V25.047z"/>
	<path d="M9.822,21.236c0.061,0,0.129,0.003,0.207,0.01c0.079,0.009,0.155,0.02,0.23,0.032c0.075,0.012,0.145,0.024,0.207,0.037
		c0.063,0.013,0.109,0.023,0.141,0.034l-0.121,0.61c-0.056-0.02-0.147-0.045-0.275-0.07c-0.128-0.028-0.293-0.042-0.495-0.042
		c-0.13,0-0.26,0.014-0.388,0.042c-0.128,0.025-0.213,0.046-0.253,0.056v3.296H8.373v-3.756c0.167-0.061,0.373-0.117,0.619-0.17
		C9.238,21.264,9.516,21.236,9.822,21.236"/>
	<path d="M14.71,23.189c0,0.313-0.044,0.594-0.135,0.846c-0.091,0.251-0.218,0.468-0.381,0.648c-0.164,0.182-0.359,0.32-0.585,0.418
		c-0.227,0.099-0.473,0.147-0.739,0.147c-0.266,0-0.513-0.049-0.74-0.147c-0.226-0.098-0.421-0.236-0.584-0.418
		c-0.164-0.181-0.291-0.397-0.381-0.648c-0.09-0.252-0.136-0.533-0.136-0.846c0-0.307,0.046-0.587,0.136-0.841
		s0.217-0.471,0.381-0.651c0.163-0.183,0.358-0.321,0.584-0.419c0.228-0.099,0.475-0.147,0.74-0.147
		c0.267,0,0.513,0.049,0.739,0.147c0.226,0.098,0.421,0.236,0.585,0.419c0.163,0.181,0.29,0.397,0.381,0.651
		S14.71,22.883,14.71,23.189 M13.979,23.189c0-0.441-0.101-0.793-0.299-1.053c-0.198-0.258-0.469-0.388-0.811-0.388
		s-0.613,0.13-0.812,0.388c-0.198,0.26-0.298,0.611-0.298,1.053c0,0.442,0.1,0.794,0.298,1.054c0.198,0.258,0.47,0.388,0.812,0.388
		s0.612-0.13,0.811-0.388C13.879,23.983,13.979,23.632,13.979,23.189"/>
	<path d="M19.116,23.288c0,0.297-0.039,0.571-0.117,0.822c-0.078,0.253-0.191,0.468-0.343,0.648
		c-0.151,0.182-0.336,0.321-0.554,0.423c-0.22,0.102-0.471,0.149-0.751,0.149c-0.227,0-0.428-0.028-0.601-0.09
		c-0.173-0.06-0.303-0.117-0.389-0.173v1.569h-0.701v-5.198c0.166-0.04,0.373-0.084,0.622-0.131
		c0.249-0.049,0.537-0.072,0.864-0.072c0.302,0,0.573,0.048,0.814,0.143c0.241,0.098,0.447,0.231,0.619,0.409
		c0.171,0.175,0.302,0.391,0.396,0.644C19.069,22.686,19.116,22.971,19.116,23.288 M18.384,23.288c0-0.458-0.112-0.81-0.339-1.057
		c-0.226-0.246-0.527-0.368-0.904-0.368c-0.213,0-0.377,0.007-0.494,0.021c-0.118,0.015-0.213,0.033-0.284,0.054v2.474
		c0.086,0.07,0.209,0.139,0.37,0.204c0.161,0.064,0.337,0.098,0.527,0.098c0.201,0,0.374-0.036,0.518-0.109
		c0.143-0.073,0.26-0.174,0.351-0.302c0.09-0.128,0.156-0.279,0.196-0.452C18.364,23.677,18.384,23.489,18.384,23.288"/>
	<path d="M19.849,23.198c0-0.348,0.049-0.65,0.151-0.909c0.1-0.26,0.232-0.475,0.398-0.646s0.357-0.3,0.574-0.385
		c0.215-0.086,0.437-0.128,0.664-0.128c0.527,0,0.932,0.164,1.214,0.493c0.282,0.33,0.422,0.832,0.422,1.506v0.117
		c0,0.047-0.002,0.091-0.007,0.131h-2.687c0.03,0.408,0.149,0.717,0.355,0.929c0.206,0.211,0.527,0.316,0.965,0.316
		c0.246,0,0.455-0.021,0.622-0.063c0.169-0.042,0.296-0.085,0.382-0.125l0.098,0.589c-0.084,0.045-0.234,0.093-0.448,0.144
		c-0.214,0.05-0.456,0.074-0.729,0.074c-0.343,0-0.637-0.051-0.887-0.154c-0.249-0.103-0.453-0.245-0.614-0.426
		s-0.28-0.396-0.357-0.646C19.888,23.767,19.849,23.494,19.849,23.198 M22.542,22.813c0.005-0.317-0.075-0.577-0.238-0.781
		s-0.388-0.306-0.676-0.306c-0.16,0-0.303,0.031-0.426,0.095c-0.124,0.063-0.228,0.144-0.313,0.245
		c-0.086,0.1-0.153,0.216-0.201,0.348c-0.047,0.13-0.079,0.263-0.093,0.399H22.542z"/>
	<path d="M23.605,26.652c-0.061,0-0.14-0.008-0.234-0.022c-0.096-0.016-0.176-0.035-0.241-0.061l0.091-0.573
		c0.05,0.016,0.107,0.027,0.173,0.038c0.065,0.01,0.126,0.016,0.181,0.016c0.242,0,0.414-0.075,0.517-0.224
		c0.104-0.148,0.155-0.366,0.155-0.653v-3.854h0.701v3.847c0,0.503-0.114,0.877-0.343,1.121
		C24.375,26.53,24.042,26.652,23.605,26.652 M24.594,20.61c-0.127,0-0.233-0.042-0.321-0.125s-0.132-0.195-0.132-0.335
		c0-0.142,0.044-0.252,0.132-0.336c0.088-0.083,0.194-0.124,0.321-0.124c0.125,0,0.231,0.041,0.319,0.124
		c0.088,0.084,0.132,0.194,0.132,0.336c0,0.14-0.044,0.252-0.132,0.335S24.719,20.61,24.594,20.61"/>
	<path d="M27.029,24.646c0.287,0,0.499-0.038,0.638-0.114c0.139-0.074,0.207-0.195,0.207-0.361c0-0.17-0.067-0.308-0.203-0.407
		c-0.136-0.102-0.359-0.214-0.672-0.339c-0.15-0.062-0.295-0.123-0.433-0.186c-0.14-0.063-0.258-0.138-0.359-0.222
		c-0.1-0.087-0.18-0.19-0.241-0.312c-0.061-0.119-0.091-0.268-0.091-0.442c0-0.35,0.129-0.624,0.385-0.828
		c0.258-0.203,0.606-0.305,1.049-0.305c0.11,0,0.222,0.006,0.333,0.02c0.109,0.012,0.213,0.026,0.309,0.044
		c0.095,0.019,0.18,0.036,0.253,0.057s0.129,0.038,0.169,0.053l-0.128,0.604c-0.075-0.04-0.194-0.082-0.354-0.124
		c-0.16-0.043-0.354-0.064-0.581-0.064c-0.196,0-0.366,0.039-0.513,0.117c-0.146,0.077-0.219,0.2-0.219,0.365
		c0,0.086,0.016,0.162,0.049,0.227c0.032,0.065,0.083,0.125,0.151,0.178c0.068,0.054,0.152,0.101,0.252,0.146
		c0.101,0.045,0.222,0.094,0.363,0.145c0.185,0.07,0.351,0.139,0.497,0.206c0.146,0.068,0.271,0.148,0.374,0.238
		c0.103,0.091,0.182,0.199,0.236,0.328c0.057,0.128,0.084,0.285,0.084,0.473c0,0.361-0.135,0.635-0.403,0.821
		c-0.27,0.188-0.652,0.278-1.151,0.278c-0.346,0-0.618-0.028-0.814-0.087c-0.195-0.057-0.33-0.101-0.399-0.132l0.128-0.603
		c0.081,0.031,0.209,0.074,0.385,0.136C26.504,24.615,26.738,24.646,27.029,24.646"/>
	<path d="M30.862,23.084c0.15,0.115,0.311,0.26,0.479,0.43c0.168,0.172,0.334,0.356,0.498,0.555c0.163,0.199,0.318,0.4,0.464,0.604
		c0.146,0.203,0.27,0.393,0.37,0.568H31.85c-0.104-0.176-0.227-0.355-0.365-0.539s-0.282-0.359-0.435-0.527
		c-0.15-0.169-0.303-0.323-0.459-0.465c-0.156-0.141-0.305-0.259-0.445-0.354v1.885h-0.702v-5.732l0.702-0.121v3.577
		c0.12-0.122,0.253-0.256,0.399-0.401c0.146-0.146,0.289-0.294,0.43-0.445c0.142-0.15,0.275-0.295,0.4-0.433
		c0.125-0.139,0.233-0.261,0.325-0.366h0.821c-0.115,0.125-0.241,0.264-0.377,0.415c-0.137,0.15-0.276,0.303-0.423,0.456
		c-0.146,0.153-0.293,0.307-0.441,0.46C31.133,22.804,30.993,22.948,30.862,23.084"/>
	<path d="M33.69,20.61c-0.126,0-0.231-0.042-0.32-0.125c-0.088-0.083-0.132-0.194-0.132-0.335c0-0.142,0.044-0.252,0.132-0.336
		c0.089-0.083,0.194-0.124,0.32-0.124s0.233,0.041,0.321,0.124c0.089,0.084,0.132,0.194,0.132,0.336
		c0,0.141-0.043,0.252-0.132,0.335C33.924,20.568,33.816,20.61,33.69,20.61 M34.046,25.241h-0.703v-3.922h0.703V25.241z"/>
	<polygon points="36.965,25.241 36.965,20.014 40.119,20.014 40.119,20.642 37.696,20.642 37.696,22.217 39.847,22.217 
		39.847,22.835 37.696,22.835 37.696,25.241 	"/>
	<path d="M43.867,25.047c-0.16,0.039-0.374,0.083-0.638,0.127c-0.264,0.045-0.569,0.067-0.917,0.067
		c-0.301,0-0.555-0.043-0.761-0.132c-0.206-0.087-0.372-0.211-0.498-0.373c-0.125-0.161-0.216-0.351-0.271-0.569
		s-0.083-0.462-0.083-0.728v-2.203H41.4v2.052c0,0.479,0.075,0.82,0.227,1.026s0.404,0.308,0.762,0.308
		c0.076,0,0.153-0.001,0.234-0.007c0.081-0.005,0.155-0.011,0.226-0.018c0.07-0.008,0.135-0.017,0.193-0.022
		c0.058-0.009,0.099-0.018,0.124-0.026v-3.313h0.701V25.047z"/>
	<path d="M45.037,21.434c0.16-0.042,0.375-0.084,0.642-0.13c0.266-0.045,0.572-0.067,0.92-0.067c0.312,0,0.57,0.044,0.776,0.132
		c0.207,0.088,0.372,0.212,0.494,0.369c0.123,0.158,0.211,0.349,0.261,0.57c0.051,0.221,0.076,0.465,0.076,0.731v2.202h-0.702
		v-2.052c0-0.241-0.017-0.446-0.049-0.618c-0.032-0.171-0.087-0.308-0.163-0.415c-0.074-0.105-0.176-0.182-0.302-0.229
		c-0.125-0.048-0.281-0.072-0.468-0.072c-0.075,0-0.153,0.004-0.232,0.008c-0.081,0.005-0.157,0.012-0.231,0.019
		c-0.072,0.009-0.139,0.017-0.196,0.026c-0.057,0.011-0.099,0.018-0.124,0.023v3.311h-0.701V21.434z"/>
	<path d="M51.863,19.418l0.702-0.121v5.741c-0.161,0.046-0.367,0.091-0.619,0.136c-0.251,0.045-0.54,0.067-0.867,0.067
		c-0.302,0-0.573-0.047-0.814-0.143s-0.447-0.231-0.618-0.407s-0.304-0.391-0.396-0.645c-0.094-0.254-0.14-0.54-0.14-0.857
		c0-0.3,0.039-0.578,0.117-0.829c0.078-0.252,0.191-0.468,0.343-0.649c0.151-0.181,0.336-0.321,0.555-0.422s0.469-0.151,0.751-0.151
		c0.227,0,0.425,0.03,0.6,0.091c0.174,0.061,0.303,0.119,0.388,0.173V19.418z M51.863,22.059c-0.085-0.07-0.209-0.139-0.369-0.204
		c-0.161-0.064-0.337-0.098-0.528-0.098c-0.2,0-0.374,0.036-0.517,0.11c-0.143,0.071-0.26,0.172-0.351,0.301
		s-0.155,0.28-0.196,0.456c-0.04,0.177-0.061,0.364-0.061,0.565c0,0.458,0.113,0.812,0.34,1.061s0.527,0.373,0.905,0.373
		c0.191,0,0.351-0.009,0.479-0.025c0.128-0.018,0.227-0.037,0.297-0.058V22.059z"/>
	<path d="M56.858,25.047c-0.161,0.039-0.374,0.083-0.638,0.127c-0.265,0.045-0.57,0.067-0.916,0.067
		c-0.303,0-0.557-0.043-0.763-0.132c-0.205-0.087-0.372-0.211-0.497-0.373c-0.127-0.161-0.218-0.351-0.271-0.569
		c-0.056-0.219-0.083-0.462-0.083-0.728v-2.203h0.701v2.052c0,0.479,0.075,0.82,0.226,1.026c0.151,0.206,0.405,0.308,0.763,0.308
		c0.075,0,0.152-0.001,0.233-0.007c0.08-0.005,0.156-0.011,0.227-0.018c0.069-0.008,0.135-0.017,0.191-0.022
		c0.059-0.009,0.101-0.018,0.125-0.026v-3.313h0.702V25.047z"/>
	<path d="M58.939,24.646c0.287,0,0.499-0.038,0.638-0.114c0.138-0.074,0.208-0.195,0.208-0.361c0-0.17-0.069-0.308-0.203-0.407
		c-0.137-0.102-0.361-0.214-0.672-0.339c-0.152-0.062-0.296-0.123-0.435-0.186s-0.258-0.138-0.357-0.222
		c-0.102-0.087-0.182-0.19-0.242-0.312c-0.06-0.119-0.09-0.268-0.09-0.442c0-0.35,0.128-0.624,0.384-0.828
		c0.257-0.203,0.607-0.305,1.049-0.305c0.111,0,0.221,0.006,0.332,0.02c0.111,0.012,0.214,0.026,0.31,0.044
		c0.096,0.019,0.181,0.036,0.252,0.057c0.073,0.021,0.131,0.038,0.171,0.053l-0.129,0.604c-0.075-0.04-0.193-0.082-0.355-0.124
		c-0.16-0.043-0.354-0.064-0.58-0.064c-0.196,0-0.367,0.039-0.513,0.117c-0.146,0.077-0.219,0.2-0.219,0.365
		c0,0.086,0.016,0.162,0.05,0.227c0.032,0.065,0.083,0.125,0.149,0.178c0.068,0.054,0.152,0.101,0.253,0.146
		c0.102,0.045,0.223,0.094,0.362,0.145c0.186,0.07,0.353,0.139,0.497,0.206c0.146,0.068,0.271,0.148,0.374,0.238
		c0.104,0.091,0.182,0.199,0.238,0.328c0.055,0.128,0.083,0.285,0.083,0.473c0,0.361-0.135,0.635-0.404,0.821
		c-0.269,0.188-0.652,0.278-1.15,0.278c-0.347,0-0.618-0.028-0.814-0.087c-0.196-0.057-0.329-0.101-0.399-0.132l0.128-0.603
		c0.08,0.031,0.208,0.074,0.385,0.136C58.415,24.615,58.647,24.646,58.939,24.646"/>
	<path d="M63.957,21.847c-0.105,0.116-0.246,0.279-0.419,0.491c-0.174,0.211-0.359,0.445-0.559,0.7
		c-0.198,0.258-0.397,0.526-0.595,0.809c-0.199,0.281-0.374,0.55-0.525,0.807h2.158v0.588h-2.996v-0.467
		c0.122-0.222,0.271-0.465,0.446-0.731c0.176-0.268,0.36-0.532,0.554-0.797c0.194-0.264,0.382-0.512,0.566-0.746
		c0.183-0.235,0.344-0.432,0.479-0.593h-1.938v-0.588h2.829V21.847z"/>
	<path d="M67.834,24.608c0.765,0,1.146-0.261,1.146-0.785c0-0.161-0.034-0.297-0.102-0.411c-0.068-0.112-0.16-0.211-0.275-0.294
		s-0.248-0.153-0.396-0.215c-0.149-0.061-0.306-0.121-0.472-0.181c-0.191-0.066-0.373-0.14-0.543-0.223
		c-0.172-0.083-0.319-0.182-0.445-0.295c-0.126-0.112-0.225-0.247-0.298-0.403c-0.073-0.155-0.11-0.346-0.11-0.565
		c0-0.458,0.157-0.813,0.468-1.072c0.313-0.256,0.742-0.385,1.29-0.385c0.318,0,0.605,0.035,0.864,0.103
		c0.259,0.069,0.449,0.143,0.57,0.223L69.297,20.7c-0.104-0.064-0.262-0.129-0.471-0.191c-0.208-0.063-0.451-0.096-0.729-0.096
		c-0.14,0-0.271,0.017-0.392,0.046c-0.121,0.03-0.227,0.075-0.317,0.136c-0.09,0.061-0.162,0.138-0.215,0.23
		c-0.052,0.093-0.079,0.202-0.079,0.328c0,0.141,0.028,0.259,0.083,0.354c0.056,0.096,0.133,0.181,0.234,0.253
		c0.1,0.072,0.217,0.139,0.351,0.199c0.133,0.061,0.279,0.12,0.441,0.182c0.226,0.09,0.434,0.181,0.622,0.271
		c0.188,0.092,0.352,0.198,0.49,0.324s0.245,0.276,0.32,0.448c0.076,0.174,0.113,0.384,0.113,0.63c0,0.459-0.167,0.811-0.501,1.056
		c-0.335,0.247-0.806,0.37-1.415,0.37c-0.206,0-0.396-0.013-0.569-0.041c-0.174-0.027-0.328-0.06-0.465-0.099
		c-0.135-0.037-0.252-0.077-0.35-0.119c-0.099-0.043-0.175-0.08-0.23-0.111l0.218-0.603c0.116,0.065,0.292,0.139,0.528,0.219
		C67.203,24.568,67.492,24.608,67.834,24.608"/>
	<path d="M74.005,23.288c0,0.297-0.039,0.571-0.117,0.822c-0.078,0.253-0.192,0.468-0.343,0.648
		c-0.151,0.182-0.336,0.321-0.555,0.423c-0.22,0.102-0.47,0.149-0.751,0.149c-0.226,0-0.427-0.028-0.6-0.09
		c-0.174-0.06-0.303-0.117-0.389-0.173v1.569h-0.702v-5.198c0.167-0.04,0.374-0.084,0.623-0.131
		c0.249-0.049,0.537-0.072,0.864-0.072c0.302,0,0.574,0.048,0.814,0.143c0.241,0.098,0.447,0.231,0.618,0.409
		c0.171,0.175,0.303,0.391,0.397,0.644C73.959,22.686,74.005,22.971,74.005,23.288 M73.273,23.288c0-0.458-0.112-0.81-0.34-1.057
		c-0.226-0.246-0.528-0.368-0.905-0.368c-0.211,0-0.375,0.007-0.493,0.021s-0.213,0.033-0.284,0.054v2.474
		c0.086,0.07,0.209,0.139,0.37,0.204c0.161,0.064,0.337,0.098,0.527,0.098c0.201,0,0.373-0.036,0.518-0.109
		c0.144-0.073,0.26-0.174,0.351-0.302s0.155-0.279,0.196-0.452C73.253,23.677,73.273,23.489,73.273,23.288"/>
	<path d="M78.418,23.189c0,0.313-0.045,0.594-0.136,0.846c-0.091,0.251-0.218,0.468-0.381,0.648
		c-0.164,0.182-0.358,0.32-0.585,0.418c-0.226,0.099-0.472,0.147-0.739,0.147c-0.266,0-0.514-0.049-0.738-0.147
		c-0.228-0.098-0.422-0.236-0.585-0.418c-0.163-0.181-0.29-0.397-0.382-0.648c-0.09-0.252-0.136-0.533-0.136-0.846
		c0-0.307,0.046-0.587,0.136-0.841c0.092-0.254,0.219-0.471,0.382-0.651c0.163-0.183,0.357-0.321,0.585-0.419
		c0.225-0.099,0.473-0.147,0.738-0.147c0.268,0,0.514,0.049,0.739,0.147c0.227,0.098,0.421,0.236,0.585,0.419
		c0.163,0.181,0.29,0.397,0.381,0.651S78.418,22.883,78.418,23.189 M77.687,23.189c0-0.441-0.099-0.793-0.298-1.053
		c-0.199-0.258-0.47-0.388-0.812-0.388s-0.611,0.13-0.811,0.388c-0.198,0.26-0.298,0.611-0.298,1.053c0,0.442,0.1,0.794,0.298,1.054
		c0.199,0.258,0.469,0.388,0.811,0.388s0.612-0.13,0.812-0.388C77.588,23.983,77.687,23.632,77.687,23.189"/>
	<path d="M80.65,25.317c-0.433-0.011-0.738-0.104-0.92-0.279c-0.182-0.175-0.271-0.449-0.271-0.821v-1.54l-0.432,0.219l-0.239-0.468
		l0.671-0.339v-2.58l0.702-0.121v2.339l0.55-0.287l0.234,0.468l-0.784,0.407v1.788c0,0.116,0.01,0.211,0.029,0.287
		c0.021,0.075,0.054,0.136,0.1,0.182c0.044,0.045,0.104,0.079,0.18,0.101c0.075,0.022,0.168,0.042,0.28,0.057L80.65,25.317z"/>
	<path d="M81.277,23.198c0-0.348,0.05-0.65,0.15-0.909c0.101-0.26,0.234-0.475,0.4-0.646c0.165-0.171,0.357-0.3,0.573-0.385
		c0.216-0.086,0.438-0.128,0.664-0.128c0.527,0,0.933,0.164,1.214,0.493c0.282,0.33,0.423,0.832,0.423,1.506v0.117
		c0,0.047-0.003,0.091-0.008,0.131h-2.686c0.03,0.408,0.148,0.717,0.354,0.929c0.206,0.211,0.528,0.316,0.966,0.316
		c0.246,0,0.454-0.021,0.622-0.063s0.296-0.085,0.381-0.125l0.099,0.589c-0.085,0.045-0.235,0.093-0.448,0.144
		c-0.214,0.05-0.456,0.074-0.729,0.074c-0.343,0-0.638-0.051-0.887-0.154c-0.249-0.103-0.454-0.245-0.615-0.426
		s-0.279-0.396-0.357-0.646S81.277,23.494,81.277,23.198 M83.971,22.813c0.005-0.317-0.074-0.577-0.237-0.781
		c-0.164-0.204-0.39-0.306-0.675-0.306c-0.161,0-0.305,0.031-0.428,0.095s-0.228,0.144-0.312,0.245
		c-0.086,0.1-0.153,0.216-0.201,0.348c-0.048,0.13-0.079,0.263-0.094,0.399H83.971z"/>
	<path d="M87.38,25.248c-0.316,0-0.595-0.049-0.834-0.149c-0.237-0.102-0.439-0.24-0.603-0.422
		c-0.164-0.183-0.286-0.396-0.366-0.646s-0.121-0.524-0.121-0.826s0.044-0.578,0.132-0.83c0.089-0.252,0.213-0.469,0.374-0.652
		c0.161-0.185,0.358-0.327,0.593-0.43c0.233-0.104,0.494-0.155,0.78-0.155c0.177,0,0.353,0.016,0.527,0.046
		c0.177,0.03,0.345,0.078,0.506,0.143l-0.158,0.597c-0.105-0.052-0.227-0.092-0.365-0.121c-0.14-0.03-0.286-0.045-0.442-0.045
		c-0.392,0-0.692,0.124-0.901,0.369c-0.209,0.246-0.313,0.606-0.313,1.079c0,0.212,0.023,0.405,0.071,0.581
		c0.049,0.176,0.124,0.327,0.227,0.452c0.103,0.126,0.235,0.223,0.396,0.291c0.16,0.068,0.356,0.102,0.588,0.102
		c0.186,0,0.354-0.018,0.506-0.053c0.15-0.035,0.269-0.073,0.354-0.113l0.099,0.589c-0.04,0.024-0.099,0.048-0.174,0.071
		c-0.075,0.022-0.16,0.043-0.256,0.061s-0.197,0.032-0.306,0.045S87.481,25.248,87.38,25.248"/>
	<path d="M91.748,21.847c-0.105,0.116-0.245,0.279-0.418,0.491c-0.175,0.211-0.36,0.445-0.559,0.7
		c-0.199,0.258-0.398,0.526-0.597,0.809c-0.198,0.281-0.373,0.55-0.523,0.807h2.157v0.588h-2.995v-0.467
		c0.12-0.222,0.269-0.465,0.444-0.731c0.177-0.268,0.362-0.532,0.556-0.797c0.193-0.264,0.382-0.512,0.565-0.746
		c0.184-0.235,0.343-0.432,0.479-0.593h-1.939v-0.588h2.829V21.847z"/>
	<path d="M92.661,21.434c0.161-0.042,0.375-0.084,0.641-0.13c0.268-0.045,0.573-0.067,0.921-0.067c0.312,0,0.57,0.044,0.776,0.132
		s0.371,0.212,0.495,0.369c0.123,0.158,0.209,0.349,0.26,0.57c0.05,0.221,0.075,0.465,0.075,0.731v2.202h-0.702v-2.052
		c0-0.241-0.015-0.446-0.049-0.618c-0.032-0.171-0.086-0.308-0.162-0.415c-0.075-0.105-0.175-0.182-0.302-0.229
		c-0.126-0.048-0.281-0.072-0.467-0.072c-0.075,0-0.153,0.004-0.234,0.008c-0.08,0.005-0.157,0.012-0.229,0.019
		c-0.073,0.009-0.14,0.017-0.197,0.026c-0.058,0.011-0.1,0.018-0.124,0.023v3.311h-0.701V21.434z"/>
	<path d="M96.357,25.974c0.055,0.025,0.127,0.049,0.215,0.073c0.088,0.021,0.175,0.033,0.26,0.033c0.277,0,0.493-0.063,0.649-0.186
		s0.297-0.324,0.422-0.6c-0.315-0.604-0.612-1.243-0.886-1.92c-0.274-0.677-0.501-1.361-0.682-2.056h0.754
		c0.056,0.226,0.121,0.471,0.199,0.731c0.077,0.262,0.164,0.531,0.261,0.808c0.096,0.276,0.198,0.552,0.309,0.829
		c0.111,0.277,0.228,0.544,0.348,0.8c0.191-0.527,0.357-1.051,0.497-1.569c0.142-0.518,0.274-1.051,0.4-1.599h0.724
		c-0.181,0.739-0.382,1.449-0.603,2.132c-0.223,0.682-0.46,1.317-0.717,1.911c-0.102,0.227-0.205,0.422-0.313,0.585
		s-0.228,0.299-0.358,0.403c-0.131,0.106-0.277,0.184-0.44,0.234c-0.164,0.05-0.349,0.075-0.555,0.075
		c-0.057,0-0.113-0.004-0.174-0.012c-0.061-0.007-0.119-0.018-0.178-0.029c-0.058-0.013-0.11-0.026-0.158-0.042
		s-0.082-0.027-0.102-0.037L96.357,25.974z"/>
	<path d="M20.101,14.697c-0.541,0-1.007-0.079-1.396-0.234c-0.388-0.157-0.71-0.376-0.966-0.658
		c-0.255-0.282-0.444-0.614-0.565-0.995c-0.122-0.381-0.183-0.801-0.183-1.258V6.603h1.452v4.813c0,0.358,0.04,0.664,0.119,0.92
		c0.08,0.255,0.194,0.463,0.343,0.623c0.148,0.159,0.325,0.278,0.526,0.354c0.201,0.076,0.429,0.114,0.68,0.114
		s0.48-0.038,0.686-0.114c0.206-0.076,0.383-0.195,0.532-0.354c0.148-0.16,0.263-0.368,0.343-0.623c0.08-0.256,0.12-0.562,0.12-0.92
		V6.603h1.452v4.949c0,0.457-0.063,0.877-0.189,1.258c-0.125,0.381-0.315,0.713-0.571,0.995c-0.255,0.282-0.581,0.501-0.978,0.658
		C21.11,14.618,20.642,14.697,20.101,14.697"/>
	<path d="M24.947,8.9c0.266-0.076,0.613-0.148,1.04-0.217c0.427-0.069,0.899-0.103,1.417-0.103c0.488,0,0.896,0.067,1.224,0.2
		c0.327,0.134,0.588,0.321,0.782,0.56c0.195,0.24,0.332,0.53,0.412,0.87c0.081,0.338,0.12,0.71,0.12,1.113v3.361H28.56v-3.144
		c0-0.319-0.021-0.592-0.063-0.817c-0.042-0.225-0.111-0.407-0.205-0.549c-0.096-0.14-0.225-0.243-0.389-0.307
		c-0.165-0.066-0.364-0.099-0.601-0.099c-0.176,0-0.357,0.012-0.549,0.035c-0.19,0.023-0.331,0.041-0.423,0.057v4.824h-1.383V8.9z"
		/>
	<path d="M33.108,6.957c0,0.26-0.084,0.465-0.251,0.618c-0.168,0.152-0.366,0.228-0.594,0.228c-0.237,0-0.439-0.076-0.606-0.228
		c-0.168-0.153-0.252-0.358-0.252-0.618c0-0.267,0.084-0.477,0.252-0.629C31.824,6.176,32.026,6.1,32.264,6.1
		c0.228,0,0.426,0.076,0.594,0.228C33.024,6.48,33.108,6.69,33.108,6.957 M32.96,14.685h-1.384V8.706h1.384V14.685z"/>
	<path d="M36.642,8.444c0.457,0,0.842,0.056,1.153,0.171c0.313,0.114,0.563,0.275,0.749,0.48c0.188,0.206,0.32,0.455,0.4,0.749
		c0.081,0.293,0.12,0.615,0.12,0.966v3.624c-0.213,0.045-0.536,0.101-0.966,0.165c-0.431,0.065-0.916,0.098-1.457,0.098
		c-0.359,0-0.687-0.035-0.983-0.104c-0.298-0.068-0.551-0.179-0.76-0.331c-0.21-0.152-0.374-0.351-0.492-0.594
		c-0.118-0.243-0.177-0.545-0.177-0.902c0-0.345,0.066-0.633,0.2-0.87c0.133-0.236,0.313-0.429,0.543-0.577
		c0.228-0.149,0.492-0.256,0.794-0.321c0.302-0.064,0.616-0.096,0.943-0.096c0.151,0,0.313,0.009,0.479,0.028
		c0.168,0.019,0.347,0.051,0.538,0.097v-0.229c0-0.16-0.02-0.312-0.058-0.457c-0.039-0.144-0.104-0.272-0.199-0.383
		c-0.097-0.11-0.223-0.196-0.378-0.257c-0.156-0.061-0.354-0.092-0.589-0.092c-0.319,0-0.613,0.024-0.881,0.069
		c-0.266,0.046-0.483,0.099-0.65,0.161l-0.172-1.121c0.175-0.061,0.431-0.122,0.766-0.183S36.26,8.444,36.642,8.444 M36.755,13.599
		c0.428,0,0.75-0.022,0.973-0.069v-1.532c-0.076-0.022-0.188-0.045-0.332-0.068c-0.146-0.022-0.306-0.034-0.48-0.034
		c-0.152,0-0.306,0.012-0.463,0.034c-0.156,0.023-0.298,0.065-0.423,0.126c-0.126,0.061-0.227,0.147-0.303,0.257
		c-0.076,0.11-0.115,0.25-0.115,0.417c0,0.328,0.104,0.555,0.31,0.681C36.126,13.536,36.404,13.599,36.755,13.599"/>
	<polygon points="43.352,14.685 43.352,6.764 48.438,6.764 48.438,7.985 44.791,7.985 44.791,9.94 48.038,9.94 48.038,11.142 
		44.791,11.142 44.791,13.462 48.712,13.462 48.712,14.685 	"/>
	<path d="M54.623,14.376c-0.269,0.068-0.613,0.14-1.04,0.212c-0.428,0.072-0.896,0.109-1.406,0.109c-0.481,0-0.883-0.07-1.206-0.206
		c-0.325-0.137-0.583-0.327-0.778-0.572c-0.194-0.244-0.333-0.536-0.417-0.875c-0.085-0.338-0.126-0.71-0.126-1.114V8.58h1.384
		v3.133c0,0.64,0.093,1.097,0.279,1.371c0.188,0.274,0.513,0.412,0.979,0.412c0.167,0,0.345-0.007,0.531-0.023
		c0.187-0.015,0.325-0.034,0.417-0.057V8.58h1.384V14.376z"/>
	<path d="M59.721,9.952c-0.115-0.038-0.271-0.078-0.474-0.12c-0.203-0.041-0.438-0.063-0.704-0.063
		c-0.152,0-0.314,0.016-0.485,0.046c-0.171,0.03-0.292,0.057-0.36,0.08v4.79h-1.384V8.992c0.268-0.099,0.602-0.192,1-0.279
		c0.401-0.089,0.846-0.133,1.332-0.133c0.092,0,0.199,0.006,0.321,0.018c0.122,0.011,0.243,0.026,0.366,0.045
		c0.121,0.019,0.239,0.042,0.354,0.07c0.114,0.026,0.206,0.051,0.274,0.073L59.721,9.952z"/>
	<path d="M66.259,11.541c0,0.473-0.067,0.904-0.205,1.292c-0.138,0.389-0.331,0.721-0.582,0.995
		c-0.253,0.274-0.556,0.488-0.909,0.64c-0.354,0.153-0.745,0.229-1.172,0.229c-0.428,0-0.816-0.076-1.166-0.229
		c-0.351-0.152-0.652-0.366-0.904-0.64c-0.251-0.274-0.447-0.606-0.587-0.995c-0.143-0.388-0.212-0.819-0.212-1.292
		c0-0.472,0.069-0.9,0.212-1.286c0.14-0.384,0.338-0.714,0.594-0.988c0.255-0.275,0.558-0.486,0.909-0.634
		c0.35-0.149,0.735-0.224,1.154-0.224s0.806,0.075,1.159,0.224c0.354,0.148,0.658,0.359,0.909,0.634
		c0.252,0.274,0.447,0.604,0.589,0.988C66.189,10.641,66.259,11.068,66.259,11.541 M64.842,11.541c0-0.594-0.128-1.064-0.383-1.41
		c-0.256-0.348-0.611-0.522-1.068-0.522s-0.814,0.174-1.069,0.522c-0.255,0.346-0.383,0.816-0.383,1.41
		c0,0.603,0.128,1.079,0.383,1.429c0.255,0.351,0.612,0.526,1.069,0.526s0.813-0.175,1.068-0.526
		C64.714,12.62,64.842,12.144,64.842,11.541"/>
	<path d="M73.004,11.702c0,0.458-0.06,0.876-0.177,1.257c-0.118,0.382-0.287,0.709-0.509,0.984
		c-0.222,0.274-0.498,0.487-0.829,0.639c-0.331,0.153-0.706,0.229-1.126,0.229c-0.281,0-0.541-0.034-0.777-0.103
		c-0.236-0.069-0.431-0.145-0.583-0.229v2.322H67.62V8.9c0.282-0.076,0.629-0.149,1.04-0.217c0.412-0.069,0.846-0.104,1.303-0.104
		c0.473,0,0.896,0.073,1.27,0.217c0.372,0.146,0.691,0.354,0.954,0.624c0.264,0.27,0.465,0.598,0.605,0.983
		C72.934,10.788,73.004,11.222,73.004,11.702 M71.586,11.724c0-0.617-0.139-1.097-0.417-1.44c-0.278-0.343-0.726-0.515-1.343-0.515
		c-0.13,0-0.265,0.006-0.406,0.018c-0.141,0.011-0.279,0.036-0.417,0.074v3.418c0.122,0.084,0.284,0.162,0.486,0.235
		c0.202,0.072,0.417,0.108,0.645,0.108c0.504,0,0.871-0.172,1.104-0.514C71.47,12.766,71.586,12.304,71.586,11.724"/>
	<path d="M74.033,11.587c0-0.527,0.078-0.988,0.233-1.384c0.156-0.396,0.364-0.726,0.623-0.989c0.259-0.263,0.557-0.46,0.893-0.594
		c0.335-0.134,0.678-0.2,1.028-0.2c0.822,0,1.466,0.256,1.926,0.765c0.461,0.512,0.691,1.274,0.691,2.287
		c0,0.077-0.002,0.163-0.005,0.258c-0.005,0.095-0.01,0.181-0.018,0.257h-3.944c0.039,0.48,0.208,0.851,0.509,1.114
		c0.301,0.263,0.738,0.394,1.31,0.394c0.335,0,0.642-0.029,0.921-0.09c0.277-0.062,0.496-0.127,0.657-0.195l0.183,1.132
		c-0.077,0.038-0.181,0.078-0.314,0.12s-0.287,0.08-0.458,0.114s-0.355,0.062-0.555,0.086c-0.198,0.022-0.4,0.035-0.604,0.035
		c-0.526,0-0.983-0.08-1.372-0.235c-0.389-0.157-0.709-0.374-0.96-0.653c-0.253-0.277-0.439-0.605-0.562-0.982
		C74.093,12.449,74.033,12.036,74.033,11.587 M78.045,10.969c0-0.19-0.026-0.372-0.08-0.542c-0.053-0.172-0.131-0.321-0.234-0.447
		c-0.103-0.126-0.229-0.224-0.377-0.297c-0.148-0.072-0.325-0.108-0.531-0.108c-0.213,0-0.4,0.04-0.561,0.119
		c-0.16,0.08-0.296,0.186-0.406,0.315c-0.109,0.129-0.195,0.278-0.257,0.446c-0.061,0.167-0.103,0.339-0.126,0.514H78.045z"/>
	<path d="M80.057,16.811c-0.099,0-0.237-0.009-0.417-0.028c-0.179-0.019-0.337-0.056-0.474-0.108l0.183-1.132
		c0.167,0.054,0.369,0.08,0.605,0.08c0.319,0,0.545-0.093,0.674-0.28c0.13-0.186,0.194-0.467,0.194-0.84V8.706h1.385v5.819
		c0,0.777-0.187,1.354-0.555,1.727C81.282,16.623,80.75,16.811,80.057,16.811 M82.354,6.957c0,0.26-0.084,0.466-0.251,0.619
		c-0.168,0.151-0.366,0.227-0.596,0.227c-0.234,0-0.438-0.076-0.604-0.227c-0.168-0.153-0.252-0.359-0.252-0.619
		c0-0.266,0.084-0.476,0.252-0.628C81.07,6.177,81.273,6.1,81.508,6.1c0.229,0,0.428,0.077,0.596,0.229
		C82.271,6.48,82.354,6.69,82.354,6.957"/>
	<path d="M85.396,13.553c0.366,0,0.632-0.044,0.8-0.131c0.168-0.088,0.252-0.239,0.252-0.452c0-0.198-0.09-0.362-0.269-0.492
		c-0.179-0.129-0.475-0.27-0.886-0.423c-0.251-0.091-0.482-0.188-0.691-0.291c-0.21-0.103-0.392-0.224-0.543-0.359
		c-0.153-0.139-0.273-0.304-0.36-0.498c-0.088-0.195-0.132-0.433-0.132-0.715c0-0.549,0.202-0.981,0.606-1.298
		c0.403-0.316,0.952-0.474,1.646-0.474c0.351,0,0.687,0.033,1.006,0.097c0.321,0.064,0.562,0.127,0.72,0.188l-0.251,1.121
		c-0.151-0.068-0.347-0.132-0.583-0.189c-0.235-0.057-0.511-0.085-0.822-0.085c-0.283,0-0.512,0.047-0.687,0.142
		c-0.176,0.096-0.264,0.242-0.264,0.441c0,0.099,0.018,0.186,0.052,0.263c0.034,0.076,0.095,0.147,0.179,0.212
		c0.083,0.064,0.193,0.129,0.33,0.193c0.138,0.065,0.306,0.131,0.504,0.201c0.327,0.122,0.604,0.242,0.834,0.359
		c0.229,0.119,0.417,0.252,0.565,0.401c0.149,0.148,0.257,0.317,0.326,0.508c0.069,0.191,0.103,0.42,0.103,0.687
		c0,0.571-0.212,1.004-0.635,1.297c-0.423,0.294-1.026,0.441-1.811,0.441c-0.526,0-0.949-0.045-1.27-0.133
		c-0.32-0.088-0.545-0.157-0.675-0.211l0.241-1.154c0.205,0.083,0.451,0.164,0.736,0.239C84.703,13.515,85.029,13.553,85.396,13.553
		"/>
	<path d="M90.438,11.038c0.175-0.183,0.36-0.378,0.56-0.588c0.197-0.209,0.393-0.42,0.583-0.629
		c0.189-0.209,0.372-0.412,0.543-0.606c0.171-0.194,0.318-0.363,0.44-0.509h1.634c-0.381,0.427-0.782,0.87-1.205,1.327
		c-0.424,0.457-0.849,0.902-1.275,1.337c0.229,0.191,0.469,0.421,0.721,0.691c0.251,0.271,0.495,0.559,0.731,0.864
		c0.235,0.305,0.457,0.61,0.663,0.914c0.206,0.305,0.377,0.587,0.514,0.846h-1.6c-0.137-0.236-0.296-0.484-0.475-0.742
		c-0.18-0.26-0.371-0.511-0.577-0.755c-0.206-0.244-0.416-0.475-0.629-0.692c-0.214-0.217-0.423-0.402-0.628-0.555v2.744h-1.384
		V6.992l1.384-0.228V11.038z"/>
	<path d="M97.273,8.444c0.457,0,0.841,0.056,1.153,0.171c0.313,0.114,0.562,0.275,0.749,0.48c0.187,0.206,0.32,0.455,0.4,0.749
		c0.079,0.293,0.12,0.615,0.12,0.966v3.624c-0.213,0.045-0.536,0.101-0.966,0.165c-0.432,0.065-0.917,0.098-1.457,0.098
		c-0.359,0-0.688-0.035-0.984-0.104c-0.297-0.068-0.551-0.179-0.76-0.331c-0.21-0.152-0.374-0.351-0.492-0.594
		c-0.118-0.243-0.176-0.545-0.176-0.902c0-0.345,0.065-0.633,0.2-0.87c0.133-0.236,0.313-0.429,0.542-0.577
		c0.229-0.149,0.494-0.256,0.795-0.321c0.301-0.064,0.615-0.096,0.942-0.096c0.152,0,0.313,0.009,0.48,0.028
		c0.167,0.019,0.347,0.051,0.537,0.097v-0.229c0-0.16-0.02-0.312-0.058-0.457c-0.037-0.144-0.104-0.272-0.199-0.383
		c-0.096-0.11-0.222-0.196-0.377-0.257c-0.156-0.061-0.354-0.092-0.59-0.092c-0.319,0-0.612,0.024-0.88,0.069
		c-0.267,0.046-0.483,0.099-0.651,0.161l-0.171-1.121c0.175-0.061,0.43-0.122,0.766-0.183C96.533,8.474,96.892,8.444,97.273,8.444
		 M97.388,13.599c0.426,0,0.75-0.022,0.971-0.069v-1.532c-0.076-0.022-0.188-0.045-0.331-0.068c-0.146-0.022-0.305-0.034-0.48-0.034
		c-0.152,0-0.307,0.012-0.463,0.034c-0.156,0.023-0.298,0.065-0.424,0.126c-0.125,0.061-0.226,0.147-0.302,0.257
		c-0.076,0.11-0.115,0.25-0.115,0.417c0,0.328,0.104,0.555,0.31,0.681C96.758,13.536,97.036,13.599,97.388,13.599"/>
</g>
</svg>
